<svg t="1705676892705" class="icon" viewBox="0 0 1024 1024" version="1.1" xmlns="http://www.w3.org/2000/svg" p-id="10170" width="200" height="200"><path d="M0 0h1024v1024H0z" fill="#FFFFFF" fill-opacity="0" p-id="10171"></path><path d="M477.866667 273.066667m34.133333 0l409.6 0q34.133333 0 34.133333 34.133333l0 0q0 34.133333-34.133333 34.133333l-409.6 0q-34.133333 0-34.133333-34.133333l0 0q0-34.133333 34.133333-34.133333Z" fill="currentColor" p-id="10172"></path><path d="M477.866667 477.866667m34.133333 0l409.6 0q34.133333 0 34.133333 34.133333l0 0q0 34.133333-34.133333 34.133333l-409.6 0q-34.133333 0-34.133333-34.133333l0 0q0-34.133333 34.133333-34.133333Z" fill="currentColor" p-id="10173"></path><path d="M477.866667 682.666667m34.133333 0l409.6 0q34.133333 0 34.133333 34.133333l0 0q0 34.133333-34.133333 34.133333l-409.6 0q-34.133333 0-34.133333-34.133333l0 0q0-34.133333 34.133333-34.133333Z" fill="currentColor" p-id="10174"></path><path d="M263.509333 146.090667l136.533334 139.264a32.768 32.768 0 0 1-46.421334 46.421333L273.066667 251.221333l-0.068267 521.557334 80.554667-80.554667a32.768 32.768 0 0 1 41.301333-4.096l5.12 4.096a32.768 32.768 0 0 1 0 46.421333l-136.533333 139.264A33.9968 33.9968 0 0 1 238.933333 887.466667l-3.549866-0.136534a33.9968 33.9968 0 0 1-20.957867-9.489066l-136.533333-139.195734a32.768 32.768 0 1 1 46.421333-46.421333l80.418133 80.4864L204.8 251.153067l-80.554667 80.554666a32.768 32.768 0 0 1-41.233066 4.232534l-5.12-4.232534a32.768 32.768 0 0 1 0-46.421333l136.533333-139.127467A34.679467 34.679467 0 0 1 238.933333 136.533333c9.079467 0 18.090667 3.208533 24.576 9.557334z" fill="currentColor" p-id="10175"></path></svg>