<svg t="1702050974851" class="icon" viewBox="0 0 1024 1024" version="1.1" xmlns="http://www.w3.org/2000/svg" p-id="5845" width="200" height="200"><path d="M512 938.666667C276.48 938.666667 85.333333 747.093333 85.333333 512 85.333333 276.48 276.48 85.333333 512 85.333333c235.093333 0 426.666667 191.146667 426.666667 426.666667 0 235.093333-191.573333 426.666667-426.666667 426.666667z m170.666667-511.146667a31.786667 31.786667 0 0 0-45.226667 0.426667L512 553.813333l-125.44-125.866666c-12.373333-12.8-32.853333-12.8-45.226667-0.426667-12.8 12.8-12.8 32.853333 0 45.226667l148.053334 148.906666a32 32 0 0 0 45.226666 0L682.666667 472.746667c6.4-5.973333 9.386667-14.08 9.386666-22.186667 0-8.533333-2.986667-16.64-9.386666-23.04z" fill="currentColor" p-id="5846"></path></svg>
