<?xml version="1.0" encoding="utf-8"?>
<!-- Generator: Adobe Illustrator 16.0.0, SVG Export Plug-In . SVG Version: 6.00 Build 0)  -->
<!DOCTYPE svg PUBLIC "-//W3C//DTD SVG 1.1//EN" "http://www.w3.org/Graphics/SVG/1.1/DTD/svg11.dtd">
<svg t="1690437602466" class="icon" viewBox="0 0 1024 1024" version="1.1" xmlns="http://www.w3.org/2000/svg" p-id="17233" width="200" height="200"><path d="M517.688889 292.977778V48.355556c-128 0-244.622222 51.2-327.111111 136.533333l173.511111 173.511111c39.822222-42.666667 93.866667-65.422222 153.6-65.422222z" fill="#92278F" p-id="17234"></path><path d="M364.088889 372.622222L173.511111 182.044444l8.533333-8.533333C273.066667 85.333333 392.533333 34.133333 517.688889 34.133333h11.377778v267.377778h-11.377778c-54.044444 0-108.088889 22.755556-145.066667 59.733333l-8.533333 11.377778zM207.644444 182.044444l156.444445 156.444445c39.822222-36.977778 88.177778-56.888889 142.222222-59.733333V59.733333c-110.933333 2.844444-216.177778 45.511111-298.666667 122.311111z" fill="#B5B1AE" p-id="17235"></path><path d="M364.088889 355.555556L190.577778 182.044444c-82.488889 85.333333-133.688889 199.111111-133.688889 327.111112h244.622222c0-59.733333 22.755556-113.777778 62.577778-153.6z" fill="#2E3192" p-id="17236"></path><path d="M312.888889 523.377778H42.666667V512c0-128 48.355556-247.466667 139.377777-335.644444l8.533334-8.533334 190.577778 190.577778-8.533334 8.533333c-39.822222 36.977778-59.733333 88.177778-59.733333 142.222223v14.222222z m-244.622222-25.6h221.866666c2.844444-54.044444 22.755556-102.4 59.733334-142.222222L190.577778 199.111111C113.777778 281.6 71.111111 386.844444 68.266667 497.777778z" fill="#B5B1AE" p-id="17237"></path><path d="M674.133333 355.555556l173.511111-173.511112c-82.488889-82.488889-199.111111-136.533333-327.111111-136.533333v244.622222c59.733333 2.844444 113.777778 25.6 153.6 65.422223z" fill="#E21F29" p-id="17238"></path><path d="M674.133333 372.622222l-8.533333-8.533333c-39.822222-39.822222-91.022222-59.733333-145.066667-59.733333h-11.377777V34.133333h11.377777c128 0 247.466667 48.355556 335.644445 139.377778l8.533333 8.533333-190.577778 190.577778z m-142.222222-91.022222c54.044444 2.844444 102.4 22.755556 142.222222 59.733333l156.444445-156.444444c-82.488889-76.8-187.733333-119.466667-298.666667-122.311111v219.022222z" fill="#B5B1AE" p-id="17239"></path><path d="M736.711111 509.155556h244.622222c0-128-51.2-244.622222-136.533333-327.111112l-173.511111 173.511112c42.666667 39.822222 65.422222 93.866667 65.422222 153.6z" fill="#F7941D" p-id="17240"></path><path d="M992.711111 523.377778h-267.377778V512c0-54.044444-22.755556-108.088889-59.733333-145.066667l-8.533333-8.533333 190.577777-190.577778 8.533334 8.533334C947.2 267.377778 995.555556 384 995.555556 512v11.377778z m-244.622222-25.6h221.866667C967.111111 386.844444 924.444444 281.6 844.8 199.111111l-156.444444 156.444445c36.977778 39.822222 56.888889 88.177778 59.733333 142.222222z" fill="#B5B1AE" p-id="17241"></path><path d="M736.711111 509.155556c0 59.733333-25.6 113.777778-62.577778 153.6l173.511111 173.511111c82.488889-82.488889 136.533333-199.111111 136.533334-327.111111h-247.466667z" fill="#EAD405" p-id="17242"></path><path d="M847.644444 853.333333l-190.577777-190.577777 8.533333-8.533334c39.822222-39.822222 59.733333-91.022222 59.733333-145.066666v-11.377778h267.377778v11.377778c0 128-48.355556 247.466667-139.377778 335.644444l-5.688889 8.533333z m-156.444444-187.733333l156.444444 156.444444c76.8-82.488889 119.466667-187.733333 122.311112-298.666666h-221.866667c-2.844444 51.2-22.755556 102.4-56.888889 142.222222z" fill="#B5B1AE" p-id="17243"></path><path d="M517.688889 728.177778v244.622222c128 0 244.622222-51.2 327.111111-136.533333l-173.511111-173.511111c-36.977778 39.822222-91.022222 65.422222-153.6 65.422222z" fill="#8DC73F" p-id="17244"></path><path d="M517.688889 984.177778h-11.377778v-267.377778h11.377778c54.044444 0 108.088889-22.755556 145.066667-59.733333l8.533333-8.533334 190.577778 190.577778-8.533334 5.688889c-88.177778 91.022222-207.644444 139.377778-335.644444 139.377778z m14.222222-244.622222v221.866666c110.933333-2.844444 216.177778-45.511111 298.666667-122.311111L674.133333 682.666667c-39.822222 34.133333-91.022222 54.044444-142.222222 56.888889z" fill="#B5B1AE" p-id="17245"></path><path d="M364.088889 665.6l-173.511111 173.511111c82.488889 82.488889 199.111111 136.533333 327.111111 136.533333v-244.622222c-59.733333-2.844444-113.777778-28.444444-153.6-65.422222z" fill="#00A650" p-id="17246"></path><path d="M531.911111 984.177778h-11.377778c-128 0-247.466667-48.355556-335.644444-139.377778l-8.533333-8.533333 190.577777-190.577778 8.533334 8.533333c39.822222 39.822222 91.022222 59.733333 145.066666 59.733334h11.377778v270.222222zM207.644444 836.266667c82.488889 76.8 187.733333 119.466667 298.666667 122.311111V739.555556c-54.044444-2.844444-102.4-22.755556-142.222222-59.733334l-156.444445 156.444445z" fill="#B5B1AE" p-id="17247"></path><path d="M301.511111 509.155556H56.888889c0 128 51.2 244.622222 136.533333 327.111111l173.511111-173.511111c-42.666667-36.977778-65.422222-91.022222-65.422222-153.6z" fill="#046FB4" p-id="17248"></path><path d="M190.577778 853.333333l-8.533334-8.533333c-91.022222-91.022222-139.377778-207.644444-139.377777-335.644444v-11.377778H312.888889v11.377778c0 54.044444 22.755556 108.088889 59.733333 145.066666l8.533334 8.533334L190.577778 853.333333zM68.266667 523.377778C71.111111 634.311111 113.777778 739.555556 190.577778 819.2l156.444444-156.444444c-36.977778-39.822222-56.888889-88.177778-59.733333-142.222223H68.266667z" fill="#B5B1AE" p-id="17249"></path><path d="M517.688889 739.555556c-62.577778 0-119.466667-22.755556-162.133333-68.266667s-68.266667-102.4-68.266667-162.133333c0-62.577778 22.755556-119.466667 68.266667-162.133334 42.666667-42.666667 102.4-68.266667 162.133333-68.266666 62.577778 0 119.466667 22.755556 162.133333 68.266666 42.666667 42.666667 68.266667 102.4 68.266667 162.133334 0 62.577778-22.755556 119.466667-68.266667 162.133333S580.266667 739.555556 517.688889 739.555556z m0-435.2c-54.044444 0-108.088889 22.755556-145.066667 59.733333S312.888889 455.111111 312.888889 509.155556c0 54.044444 22.755556 108.088889 59.733333 145.066666 39.822222 39.822222 91.022222 59.733333 145.066667 59.733334s108.088889-22.755556 145.066667-59.733334c39.822222-39.822222 59.733333-91.022222 59.733333-145.066666 0-54.044444-22.755556-108.088889-59.733333-145.066667-36.977778-39.822222-88.177778-59.733333-145.066667-59.733333z m0 219.022222V512v11.377778-11.377778h-11.377778v-11.377778h22.755556v11.377778h-11.377778v11.377778z" fill="#B5B1AE" p-id="17250"></path></svg>
