<svg t="1701234602873" class="icon" viewBox="0 0 1024 1024" version="1.1" xmlns="http://www.w3.org/2000/svg" p-id="5232" width="200" height="200"><path d="M505 912H368a8.009 8.009 0 0 1-8-8V767a8.009 8.009 0 0 1 8-8h137a8.009 8.009 0 0 1 8 8v137a8.009 8.009 0 0 1-8 8z m-0.56-241H366.888a8.009 8.009 0 0 1-8-8V426.85a8.009 8.009 0 0 1 8-8h266.848a76.713 76.713 0 0 0 0-153.426H168a8.009 8.009 0 0 1-8-8V120a8.009 8.009 0 0 1 8-8h465.863a231.837 231.837 0 0 1 46.381 4.676 228.877 228.877 0 0 1 82.291 34.624 230.811 230.811 0 0 1 83.38 101.254 228.977 228.977 0 0 1 13.41 43.2 232.382 232.382 0 0 1 0 92.761A228.88 228.88 0 0 1 824.7 470.81a230.807 230.807 0 0 1-101.253 83.38 228.971 228.971 0 0 1-43.2 13.41 231.838 231.838 0 0 1-46.381 4.676H512.44V663a8.009 8.009 0 0 1-8 8z" p-id="5233"></path></svg>