<svg width="65" height="37" viewBox="0 0 65 37" fill="currentColor" focusable="false" version="1.0" xmlns="http://www.w3.org/2000/svg">
  <g id="shape" fill="currentColor" transform="translate(0 37) scale(0.1 -0.1)">
    <path id="star" d="m113.66665,327c-21,-22 -35,-50 -43,-87c-7,-30 -14,-56 -15,-58c-1,-2 -15,5 -31,15c-24,15 -22,11 15,-35c24,-28 48,-55 53,-58c5,-3 0,-19 -12,-35c-18,-26 -11,-23 51,22c40,29 79,64 88,77l15,23l24,-50c12,-28 24,-51 27,-51c11,0 -41,168 -57,182c-19,17 -19,18 14,33c34,14 34,14 -40,15c-73,0 -74,0 -56,20c30,34 1,22 -33,-13zm76,-76l22,-30l-38,-45c-20,-25 -40,-45 -43,-45c-4,-1 -16,7 -26,17c-29,25 -13,96 25,117c36,19 35,19 60,-14z" />
    <path id="dot" d="m 232.94284,70.12381 c 0,-6 5,-13 10,-16 6,-3 10,1 10,9 0,9 -4,16 -10,16 -5,0 -10,-4 -10,-9 z" />
  </g>
  <g id="name">
    <path id="A" d="m 40.764223,30.721515 1.42267,-0.02933 q 0.528001,0 0.528001,0.07333 0,0.190667 -2.141338,0.337334 -1.364003,2.669339 -1.364003,3.637342 0,0.674668 0.425334,0.674668 0.161334,0 0.396001,-0.205334 0.249334,-0.190667 0.293334,-0.190667 0.05867,0 0.05867,0.07333 -0.07333,0.264 -0.454668,0.440001 -0.366667,0.176 -0.630668,0.176 -0.249334,0 -0.396001,-0.02933 -0.352001,-0.132001 -0.352001,-0.850669 0,-1.481337 1.129336,-3.769342 l -1.760004,0.044 q -1.965338,1.921338 -3.945342,3.373341 -2.962674,2.156005 -4.634678,2.156005 -0.102666,0 -0.205333,-0.01467 -2.258672,-0.190667 -2.258672,-2.317338 0,-1.261337 0.792002,-2.66934 1.056002,-1.877337 2.88934,-3.19734 1.833337,-1.33467 3.28534,-1.33467 1.452004,0 1.452004,1.070669 0,0.718668 -0.440001,1.59867 -0.440001,0.880002 -0.894669,1.11467 -0.044,0.01467 -0.102667,0.01467 -0.044,0 -0.044,-0.02933 l 0.484001,-0.792002 q 0.498668,-0.777335 0.498668,-1.364003 0,-0.586668 -0.264001,-0.938669 -0.249334,-0.366667 -0.806668,-0.366667 -1.144003,0 -2.742673,1.276002 -1.584004,1.276003 -2.420006,3.138674 -0.821335,1.862671 -0.821335,2.904007 0,1.569337 1.59867,1.569337 1.525337,0 4.13601,-1.965338 1.158669,-0.865335 3.769342,-3.270674 -0.513335,0.02933 -0.953336,0.102667 -0.938668,0.176 -0.880002,-0.05867 0.05867,-0.542668 0.557335,-0.542668 0.968002,0.117334 1.628004,0.117334 1.261336,-1.15867 3.769342,-3.798676 1.68667,-1.77467 2.053338,-1.77467 0.161333,0 0.161333,0.249333 0,0.249334 -0.132,0.777336 -0.132,0.528001 -0.293334,0.645334 -0.337334,0.234668 -0.630668,0.645335 -0.293334,0.396001 -0.836002,1.51067 -0.542668,1.100003 -0.924002,1.789338 z m 1.173336,-3.578675 -3.754675,3.520008 h 0.865335 q 0.308001,0.01467 0.762668,0.01467 0.425335,-0.836002 2.126672,-3.534675 z"/>
    <path id="n" d="m 44.210904,30.281514 q 0.396001,0 0.396001,0.308 0,0.088 -0.044,0.176001 -1.320003,1.833337 -1.584004,2.772006 3.417342,-3.417341 4.150677,-3.417341 0.07333,-0.01467 0.132,-0.01467 0.410668,0 0.410668,0.366668 0,0.07333 -0.02933,0.146667 -0.02933,0.07333 -0.586668,0.792002 -0.645335,0.762668 -1.100002,1.46667 -0.440001,0.704001 -0.440001,1.173336 0,0.469334 0.205333,0.469334 0.645335,0 2.244006,-1.774671 0.02933,-0.02933 0.102666,-0.132 0.220001,-0.264 0.264001,-0.264 0.044,0 0.044,0.146667 0,0.146667 -0.205334,0.381334 -1.81867,2.068005 -2.581339,2.068005 -0.718668,0 -0.718668,-0.792002 0,-0.792002 0.586668,-1.818671 l 0.938669,-1.525337 q -0.997336,0.733335 -1.774671,1.613337 -0.777335,0.865335 -1.42267,1.686671 -0.630668,0.821335 -0.733335,0.821335 -0.220001,0 -0.352001,-0.176001 -0.117333,-0.190667 -0.117333,-0.454667 0,-0.278668 0.190667,-0.733335 0.190667,-0.454668 0.484001,-1.100003 l -0.880002,0.924002 q -0.322668,0.322668 -0.396001,0.322668 -0.088,0 -0.088,-0.088 0,-0.102666 0.117333,-0.22 0.542668,-0.542668 0.938669,-1.041336 0.381334,-0.498668 1.569337,-1.906671 0.132,-0.176 0.278667,-0.176 z"/>
    <path id="o" d="m 51.588253,31.806851 q 0,0.513334 -0.982669,1.716004 -1.158669,1.42267 -1.980004,1.42267 h -0.234668 q -0.381334,0 -0.601334,-0.396001 -0.176001,-0.278668 -0.176001,-0.616002 0,-0.880002 1.276003,-2.464005 1.29067,-1.598671 2.082672,-1.598671 0.748001,0 0.748001,0.792002 0,0.205334 -0.07333,0.528001 0.01467,0.044 0.278667,0.044 0.264001,0 0.806669,-0.278667 -0.01467,0.249334 -1.15867,0.718668 0.01467,0.05867 0.01467,0.132001 z m -0.953335,-0.762669 q -0.498668,0 -1.42267,1.173336 -0.909336,1.173336 -0.909336,1.730671 0,0.557334 0.352001,0.557334 0.630668,0 1.59867,-1.144002 0.968003,-1.144003 0.968003,-1.642671 -0.234668,-0.132 -0.586668,-0.674668 z"/>
    <path id="d" d="m 56.706934,30.472181 q 1.642671,-2.66934 2.288006,-2.66934 0.102666,0 0.278667,0.07333 0.190667,0.05867 0.190667,0.190667 0,0.07333 -0.07333,0.190667 -1.173336,1.437337 -1.745337,2.156005 -1.730671,2.185338 -1.906671,3.138674 -0.044,0.205334 -0.044,0.410668 0,0.660001 0.542668,0.660001 1.085336,0 2.830673,-2.009338 0.146667,-0.146667 0.249334,-0.161334 0.102667,-0.02933 0.102667,0.044 0,0.07333 -0.088,0.176 -1.701338,2.038671 -3.021341,2.273339 -0.07333,0.01467 -0.205333,0.01467 -0.454668,0 -0.689335,-0.308001 -0.220001,-0.322667 -0.220001,-0.689334 0,-0.410668 0.161334,-0.909336 l -1.188003,1.188003 q -0.806668,0.748002 -1.276003,0.748002 -0.454667,0 -0.762668,-0.249334 -0.366668,-0.278668 -0.366668,-0.777335 0,-1.07067 1.496004,-2.552006 1.496003,-1.496004 2.742673,-1.496004 0.410667,0 0.572001,0.220001 0.05867,0.07333 0.132,0.337334 z m -4.326676,3.666675 q 0,0.528001 0.366667,0.528001 0.630668,0 2.097338,-1.73067 0.264001,-0.308001 1.760004,-2.302672 -0.102666,-0.176001 -0.352,-0.176001 -0.909336,0 -2.390673,1.393337 -1.481336,1.37867 -1.481336,2.288005 z"/>
  </g>
</svg>
