<?xml version="1.0" standalone="no"?><!DOCTYPE svg PUBLIC "-//W3C//DTD SVG 1.1//EN" "http://www.w3.org/Graphics/SVG/1.1/DTD/svg11.dtd"><svg class="icon" viewBox="0 0 1028 1024" version="1.1" xmlns="http://www.w3.org/2000/svg" p-id="2643" xmlns:xlink="http://www.w3.org/1999/xlink" width="200" height="200"><path d="M901.413 167.355H119.305C53.52 167.355-0.001 220.876-0.001 286.661v450.707c0 65.785 53.521 119.306 119.306 119.306h782.108c65.785 0 119.306-53.521 119.306-119.306V286.661c0-65.785-53.521-119.306-119.306-119.306z m66.282 570.011c0 36.607-29.674 66.281-66.281 66.281H119.306c-36.607 0-66.281-29.674-66.281-66.281V286.659c0-36.607 29.674-66.281 66.281-66.281h782.108c36.607 0 66.281 29.674 66.281 66.281v450.707z m-861.646-437.45c0 14.642 11.869 26.511 26.511 26.511s26.511-11.869 26.511-26.511-11.869-26.511-26.511-26.511-26.511 11.869-26.511 26.511z m-53.024 79.537h914.669v53.025H53.025z m53.024 132.561c0 14.642 11.869 26.511 26.511 26.511s26.511-11.869 26.511-26.511-11.869-26.511-26.511-26.511-26.511 11.869-26.511 26.511z m0 212.096c0 14.642 11.869 26.511 26.511 26.511s26.511-11.869 26.511-26.511-11.869-26.511-26.511-26.511-26.511 11.869-26.511 26.511z m106.05-424.194c0 14.642 11.869 26.511 26.511 26.511s26.511-11.869 26.511-26.511-11.869-26.511-26.511-26.511-26.511 11.869-26.511 26.511z m0 212.098c0 14.642 11.869 26.511 26.511 26.511s26.511-11.869 26.511-26.511-11.869-26.511-26.511-26.511-26.511 11.869-26.511 26.511z m0 212.096c0 14.642 11.869 26.511 26.511 26.511s26.511-11.869 26.511-26.511-11.869-26.511-26.511-26.511-26.511 11.869-26.511 26.511z m106.048-424.194c0 14.642 11.869 26.511 26.511 26.511s26.511-11.869 26.511-26.511-11.869-26.511-26.511-26.511-26.511 11.869-26.511 26.511z m0 212.098c0 14.642 11.869 26.511 26.511 26.511s26.511-11.869 26.511-26.511-11.869-26.511-26.511-26.511-26.511 11.869-26.511 26.511z m0 212.096c0 14.642 11.869 26.511 26.511 26.511s26.511-11.869 26.511-26.511-11.869-26.511-26.511-26.511-26.511 11.869-26.511 26.511zM53.025 591.55h914.669v53.025H53.025z" fill="currentColor"></path></svg>