<?xml version="1.0" encoding="utf-8"?>
<!-- Generator: Adobe Illustrator 16.0.0, SVG Export Plug-In . SVG Version: 6.00 Build 0)  -->
<!DOCTYPE svg PUBLIC "-//W3C//DTD SVG 1.1//EN" "http://www.w3.org/Graphics/SVG/1.1/DTD/svg11.dtd">
<svg version="1.1" id="Layer_1" xmlns="http://www.w3.org/2000/svg" xmlns:xlink="http://www.w3.org/1999/xlink" x="0px" y="0px" width="648.391px" height="665.703px" viewBox="0 0 648.391 665.703" enable-background="new 0 0 648.391 665.703" xml:space="preserve">
<g>
	<path fill="#FFFFFF" d="M338.504,662.064h-28.601c-155.443,0-229.544-1.137-257.426-1.566c-6.698-0.096-10.82-0.174-12.885-0.174
		c-12.329,0-29.684-9.234-29.684-29.768l-0.031-6.393c-0.085-13.416-0.271-45.002-0.271-70.162c0-27.665-0.147-45.879-0.193-50.752
		l-0.015-1.33v-1.125c0-0.023-0.023-1.172-0.023-1.195c0.023-5.031,0.093-37.484,0.093-70.795c0-30.407,0.263-64.198,0.34-74.156
		c-0.201-0.166-0.387-0.332-0.557-0.498c-0.225-0.221-2.32-2.186-2.707-2.51c-1.408-1.061-1.98-2.232-1.98-3.914
		c0-13.334,4.323-19.83,8.353-24.908c1.276-1.565,2.738-3.039,4.377-4.369c-2.947-0.031-5.468-0.07-6.853-0.12l-1.021-0.016
		c-2.993,0-5.329-2.084-5.329-4.729c0-10.975-0.062-24.85-0.155-41.285c-0.132-23.775-0.294-52.855-0.294-86.105
		c0-40.674,0.325-126.312,0.495-145.249C4.347,20.948,19.97,5.274,39.7,5.274c5.089,0,15.739-0.112,31.501-0.271
		c46.328-0.476,132.542-1.369,252.291-1.369c119.756,0,206.766,0.894,253.497,1.369c15.895,0.158,26.629,0.271,31.711,0.271
		c19.746,0,35.369,15.674,35.562,35.67c0.17,18.938,0.486,104.575,0.486,145.249c0,33.25-0.154,62.33-0.277,86.105
		c-0.102,16.436-0.162,30.311-0.162,41.285c0,2.646-2.344,4.729-5.338,4.729c-0.395,0-3.859,0.065-8.291,0.12
		c1.686,1.377,3.232,2.954,4.602,4.641c4.021,5.062,8.346,11.555,8.346,24.9c0,1.654-0.564,2.826-1.824,3.77
		c-0.535,0.469-2.646,2.437-2.939,2.723c-0.102,0.09-0.193,0.182-0.287,0.256c0.094,11.168,0.441,58.787,0.441,118.693
		c0,47.724-0.525,157.154-0.525,157.154c0,20.52-17.355,29.754-29.662,29.754c-2.08,0-6.201,0.078-12.893,0.174
		C568.057,660.928,493.956,662.064,338.504,662.064"/>
	<path fill="#424143" d="M323.492,7.285c161.53,0,265.516,1.64,285.208,1.64c16.613,0,31.734,13.218,31.92,32.051
		c0.186,19.745,0.486,105.43,0.486,145.202c0,56.225-0.434,100.538-0.434,127.41c0,0.584-0.766,1.075-1.701,1.075
		c-0.51,0-6.078,0.089-12.297,0.182h-0.008c-1.842,0-1.33-3.597-1.33-3.597h-49.686v2.742c0,0,27.141,0.12,36.158,0.673
		c9.574,0.604,16.729,5.839,20.611,10.692c4.123,5.132,7.557,10.852,7.557,22.619c0,0.746-0.115,0.642-0.674,1.102
		c-0.254,0.229-2.621,2.437-2.938,2.738c-0.355,0.332-0.898,0.657-1.416,0.928l-0.039,0.016c0.062,7.459,0.465,56.707,0.465,120.658
		c0,47.728-0.533,157.133-0.533,157.133c0,17.951-15.199,26.148-26.027,26.148c-10.812,0-77.998,1.709-270.303,1.709h-28.601
		c-192.304,0-259.499-1.709-270.335-1.709c-10.812,0-26.026-8.197-26.026-26.148c0-2.328-0.293-44.607-0.293-76.547
		c0-31.965-0.209-51.32-0.209-52.082c0-0.758-0.023-1.354-0.023-1.632c0-0.267,0.093-35.376,0.093-71.483
		c0-33.064,0.31-70.177,0.356-76.197h0.008c-0.108-0.039-0.193-0.105-0.217-0.12c-0.541-0.251-1.083-0.562-1.438-0.925
		c-0.317-0.301-2.691-2.51-2.939-2.727c-0.557-0.455-0.673-0.34-0.673-1.105c0-11.764,3.442-17.479,7.549-22.638
		c3.411-4.242,9.374-8.48,17.232-10.128h-0.031h0.008c3.875-1.156,40.357-1.226,40.357-1.226s0.286-2-0.928-2.016
		c-1.114,0-49.174-0.476-49.174-0.476s0.534,3.581-1.005,3.581c-6.257,0-12.274-0.166-12.785-0.166
		c-0.944,0-1.702-0.491-1.702-1.075c0-26.872-0.449-71.186-0.449-127.41c0-39.772,0.302-125.457,0.503-145.202
		C7.974,22.143,23.087,8.925,39.7,8.925C59.399,8.925,161.955,7.285,323.492,7.285 M323.492,0C203.735,0,117.499,0.896,71.163,1.376
		C55.408,1.543,44.789,1.647,39.7,1.647c-21.757,0-38.973,17.251-39.189,39.251C0.317,59.777,0,145.415,0,186.178
		c0,33.266,0.163,62.346,0.286,86.137c0.093,16.42,0.17,30.295,0.17,41.273c0,4.544,3.72,8.156,8.546,8.354
		c-4.88,6.496-8.067,13.623-8.067,25.789c0,2.842,1.129,5.124,3.341,6.752c0.147,0.135,1.183,1.094,1.887,1.752
		c-0.225,28.442-0.333,52.84-0.333,72.57c0,33.23-0.069,65.617-0.085,70.771v0.712l0.008,0.596l0.016,1.036l0.008,1.361
		c0.039,4.865,0.193,23.071,0.193,50.721c0,25.16,0.186,56.73,0.263,70.154l0.031,6.393c0,23.059,19.483,33.434,33.312,33.434
		c2.065,0,6.18,0.066,12.831,0.158c27.905,0.422,102.022,1.562,257.504,1.562h28.601c155.48,0,229.59-1.141,257.496-1.562
		c6.643-0.092,10.75-0.158,12.807-0.158c13.83,0,33.312-10.375,33.312-33.434c0-1.041,0.525-109.932,0.525-157.133
		c0-53.711-0.285-97.776-0.426-117.108c0.729-0.692,1.641-1.523,1.889-1.751c2.018-1.497,3.139-3.756,3.139-6.582
		c0-12.982-3.859-20.291-8.252-26.026c5.02-0.007,8.949-3.681,8.949-8.36c0-10.979,0.068-24.854,0.154-41.273
		c0.131-23.791,0.285-52.871,0.285-86.137c0-38.188-0.301-125.07-0.494-145.279c-0.209-22-17.426-39.251-39.197-39.251
		c-5.082,0-15.801-0.104-31.688-0.271C530.266,0.896,443.256,0,323.492,0"/>
	<path fill="none" stroke="#424143" stroke-width="5.3617" stroke-linejoin="round" stroke-miterlimit="2" d="M634.895,351.771
		c0,0,0.48,52.152,0.48,121.641c0,47.728-0.533,157.141-0.533,157.141c0,17.943-15.199,26.141-26.027,26.141
		c-10.818,0-77.998,1.721-270.303,1.721h-28.609c-192.296,0-259.491-1.721-270.319-1.721s-26.034-8.197-26.034-26.141
		c0-2.328-0.046-3.4-0.046-7.473c0-0.908,0.016-1.105,0.016-1.627c0-0.543-0.271-35.508-0.271-67.455
		c0-31.965-0.193-51.312-0.193-52.082c0-0.762-0.031-1.346-0.031-1.632c0-0.267,0.093-35.368,0.093-71.476
		c0-36.092,0.364-77.037,0.364-77.037H634.895z"/>
	<path fill="#424143" d="M89.423,385.914c30.566,0,55.331,24.77,55.331,55.331s-24.765,55.312-55.331,55.312
		s-55.323-24.75-55.323-55.312S58.857,385.914,89.423,385.914 M89.423,393.583c-26.281,0-47.65,21.393-47.65,47.662
		c0,26.276,21.37,47.654,47.65,47.654c26.289,0,47.659-21.378,47.659-47.654C137.082,414.976,115.712,393.583,89.423,393.583"/>
	<path fill="#BDBEC0" d="M123.516,441.245c0-18.833-15.267-34.085-34.092-34.085s-34.077,15.252-34.077,34.085
		c0,18.817,15.252,34.073,34.077,34.073S123.516,460.062,123.516,441.245"/>
	<path fill="none" stroke="#424143" stroke-width="5.3617" stroke-linejoin="round" stroke-miterlimit="2" d="M576.905,487.577
		c0-9.892-8.021-17.925-17.928-17.925c-9.9,0-17.928,8.033-17.928,17.925c0,9.907,8.027,17.939,17.928,17.939
		C568.883,505.517,576.905,497.484,576.905,487.577 M612.661,451.826c0-9.908-8.029-17.929-17.93-17.929
		c-9.898,0-17.928,8.021-17.928,17.929c0,9.899,8.029,17.924,17.928,17.924C604.631,469.75,612.661,461.726,612.661,451.826
		 M576.905,416.07c0-9.893-8.021-17.924-17.928-17.924c-9.9,0-17.928,8.031-17.928,17.924c0,9.907,8.027,17.928,17.928,17.928
		C568.883,433.998,576.905,425.978,576.905,416.07 M541.141,451.826c0-9.908-8.027-17.929-17.92-17.929
		c-9.908,0-17.928,8.021-17.928,17.929c0,9.899,8.02,17.924,17.928,17.924C533.114,469.75,541.141,461.726,541.141,451.826
		 M123.516,441.245c0-18.833-15.267-34.085-34.092-34.085s-34.077,15.252-34.077,34.085c0,18.817,15.252,34.073,34.077,34.073
		S123.516,460.062,123.516,441.245"/>
	<path fill="#FFFFFF" d="M324.281,614.414l162.922-0.115v27.916c0,2.525-2.004,5.146-5.129,5.162
		c-23.898,0.152-112.439,0.508-157.647,0.508c-45.206,0-134.026-0.355-157.917-0.508c-3.133-0.016-5.151-2.637-5.151-5.162v-27.916
		L324.281,614.414z"/>
	<path fill="none" stroke="#424143" stroke-width="5.3617" stroke-linejoin="round" d="M324.281,614.414l162.922-0.115v27.916
		c0,2.525-2.004,5.146-5.129,5.162c-23.898,0.152-112.439,0.508-157.647,0.508c-45.206,0-134.026-0.355-157.917-0.508
		c-3.133-0.016-5.151-2.637-5.151-5.162v-27.916L324.281,614.414z"/>
	<path fill="none" stroke="#424143" stroke-width="5.3617" stroke-linejoin="round" stroke-miterlimit="2" d="M130.709,546.632
		c0-1.308-1.052-2.344-2.344-2.344h-22.027c-1.299,0-2.359-1.071-2.359-2.366v-21.757c0-1.3-1.06-2.37-2.351-2.37H77.289
		c-1.292,0-2.344,1.07-2.344,2.37v21.757c0,1.295-1.06,2.366-2.359,2.366H50.721c-1.292,0-2.343,1.036-2.343,2.344v24.347
		c0,1.266,1.052,2.336,2.343,2.336h21.865c1.299,0,2.359,1.053,2.359,2.344v22.143c0,1.299,1.052,2.352,2.344,2.352h24.339
		c1.292,0,2.351-1.053,2.351-2.352v-22.143c0-1.291,1.06-2.344,2.359-2.344h22.027c1.292,0,2.344-1.07,2.344-2.336V546.632z"/>
	<path fill="#FFFFFF" d="M627.518,314.961c0,0,10.525-0.298,11.453-0.298s1.701-0.491,1.701-1.079
		c0-26.872,0.434-71.182,0.434-127.406c0-39.772-0.301-125.457-0.486-145.202c-0.186-18.833-15.307-32.043-31.92-32.043
		c-19.691,0-123.678-1.647-285.208-1.647c-161.537,0-264.093,1.647-283.785,1.647c-16.621,0-31.741,13.21-31.919,32.043
		c-0.201,19.745-0.511,105.43-0.511,145.202c0,56.225,0.457,100.534,0.457,127.406c0,0.588,0.758,1.079,1.702,1.079"/>
	<path fill="none" stroke="#424143" stroke-width="5.3617" stroke-linejoin="round" stroke-miterlimit="2" d="M627.518,314.961
		c0,0,10.525-0.298,11.453-0.298s1.701-0.491,1.701-1.079c0-26.872,0.434-71.182,0.434-127.406
		c0-39.772-0.301-125.457-0.486-145.202c-0.186-18.833-15.307-32.043-31.92-32.043c-19.691,0-123.678-1.647-285.208-1.647
		c-161.537,0-264.093,1.647-283.785,1.647c-16.621,0-31.741,13.21-31.919,32.043c-0.201,19.745-0.511,105.43-0.511,145.202
		c0,56.225,0.457,100.534,0.457,127.406c0,0.588,0.758,1.079,1.702,1.079"/>
	<path fill="#424143" d="M626.952,314.768c0,0,0.248-97.51,0.248-136.722c0-39.217-0.084-116.903-0.324-130.376
		c-0.248-14.154-11.346-24.781-24.805-24.939c-13.611-0.15-102.889-2.397-278.579-2.397c-175.691,0-263.552,2.247-277.148,2.397
		C32.878,22.889,21.788,33.516,21.532,47.67c-0.248,13.473-0.34,91.159-0.34,130.376c0,39.212,0.263,136.799,0.263,136.799h1.709
		l0.062-3.593h602.118l0.023,3.547L626.952,314.768z"/>
	<path fill="none" stroke="#424143" stroke-width="5.3617" stroke-linejoin="round" stroke-miterlimit="2" d="M626.952,314.768
		c0,0,0.248-97.51,0.248-136.722c0-39.217-0.084-116.903-0.324-130.376c-0.248-14.154-11.346-24.781-24.805-24.939
		c-13.611-0.15-102.889-2.397-278.579-2.397c-175.691,0-263.552,2.247-277.148,2.397C32.878,22.889,21.788,33.516,21.532,47.67
		c-0.248,13.473-0.34,91.159-0.34,130.376c0,39.212,0.263,136.799,0.263,136.799h1.709l0.062-3.593h602.118l0.023,3.547
		L626.952,314.768z"/>
	<path fill="#FFFFFF" d="M8.222,347.73c0-11.768,3.434-17.486,7.548-22.634c4.293-5.371,12.685-10.716,23.814-10.852
		c7.835-0.104,12.97-0.119,33.613-0.506v41.579H20.209c-1.67,0-1.717-0.016-2.25-0.295c-1.384-0.75-4.494-2.428-4.695-2.533
		c-0.534-0.254-1.075-0.572-1.431-0.928c-0.317-0.301-2.699-2.518-2.947-2.723C8.322,348.373,8.222,348.492,8.222,347.73"/>
	<path fill="none" stroke="#424143" stroke-width="5.3617" stroke-linejoin="round" stroke-miterlimit="2" d="M73.197,346.16H10.72
		c-2.026,0-2.359,2.228-2.359,2.228 M8.222,347.73c0-11.768,3.434-17.486,7.548-22.634c4.293-5.371,12.685-10.716,23.814-10.852
		c7.835-0.104,12.97-0.119,33.613-0.506v41.579H20.209c-1.67,0-1.717-0.016-2.25-0.295c-1.384-0.75-4.494-2.428-4.695-2.533
		c-0.534-0.254-1.075-0.572-1.431-0.928c-0.317-0.301-2.699-2.518-2.947-2.723C8.322,348.373,8.222,348.492,8.222,347.73z"/>
	<path fill="#FFFFFF" d="M639.969,347.971c0-11.768-3.426-17.487-7.557-22.619c-4.285-5.379-12.676-10.716-23.805-10.882
		c-7.836-0.104-12.963-0.104-33.598-0.499v41.587h52.971c1.664,0,1.717-0.023,2.236-0.302c1.398-0.742,4.516-2.421,4.725-2.51
		c0.525-0.271,1.061-0.604,1.416-0.928c0.316-0.298,2.691-2.518,2.945-2.738C639.87,348.612,639.969,348.717,639.969,347.971"/>
	<path fill="none" stroke="#424143" stroke-width="5.3617" stroke-linejoin="round" stroke-miterlimit="2" d="M575.211,346.156
		h62.469c2.033,0,2.367,2.235,2.367,2.235 M639.969,347.971c0-11.768-3.426-17.487-7.557-22.619
		c-4.285-5.379-12.676-10.716-23.805-10.882c-7.836-0.104-12.963-0.104-33.598-0.499v41.587h52.971c1.664,0,1.717-0.023,2.236-0.302
		c1.398-0.742,4.516-2.421,4.725-2.51c0.525-0.271,1.061-0.604,1.416-0.928c0.316-0.298,2.691-2.518,2.945-2.738
		C639.87,348.612,639.969,348.717,639.969,347.971z"/>
	<path fill="none" stroke="#010101" stroke-width="1.9166" stroke-linejoin="round" stroke-miterlimit="2" d="M473.405,376.83
		c0-1.287-1.045-2.336-2.352-2.336h-293.7c-1.291,0-2.358,1.049-2.358,2.336v221.475c0,1.291,1.067,2.342,2.358,2.342h293.7
		c1.307,0,2.352-1.051,2.352-2.342V376.83z"/>
	<path fill="#BDBEC0" d="M174.995,375.829c0-1.3,1.067-2.366,2.358-2.366h293.7c1.307,0,2.352,1.066,2.352,2.366v221.462
		c0,1.291-1.045,2.344-2.352,2.344h-293.7c-1.291,0-2.358-1.053-2.358-2.344V375.829z"/>
	<path fill="none" stroke="#424143" stroke-width="5.3617" stroke-linejoin="round" stroke-miterlimit="2" d="M174.995,375.829
		c0-1.3,1.067-2.366,2.358-2.366h293.7c1.307,0,2.352,1.066,2.352,2.366v221.462c0,1.291-1.045,2.344-2.352,2.344h-293.7
		c-1.291,0-2.358-1.053-2.358-2.344V375.829z"/>
	<path fill="#FFFFFF" d="M625.336,311.248c0,0-48.262,0.375-49.461,0.476c-0.975,0.097-0.936,1.428-0.936,2.012
		c0,0.595,0.062,41.587,0.062,41.587H324.196h-251c0,0,0.132-40.992,0.132-41.587c0-0.584,0.023-1.915-0.928-2.012
		c-1.222-0.101-49.174-0.476-49.174-0.476H625.336z"/>
	<path fill="none" stroke="#424143" stroke-width="5.3617" stroke-linejoin="round" stroke-miterlimit="2" d="M524.11,627.732
		h-14.021c-3.109,0-5.639-2.525-5.639-5.639v-14.01c0-3.113,2.529-5.662,5.639-5.662h14.021c3.125,0,5.654,2.549,5.654,5.662v14.01
		C529.764,625.207,527.235,627.732,524.11,627.732z M327.838,356.369h156.666c1.145,0,2.707,1.513,2.707,3.65v280.742
		c0,3.875-3.102,7.049-6.846,7.049H168.204c-3.759,0-6.845-3.174-6.845-7.049V360.02c0-2.138,1.555-3.65,2.707-3.65H327.838z
		 M625.336,311.248c0,0-48.262,0.375-49.461,0.476c-0.975,0.097-0.936,1.428-0.936,2.012c0,0.595,0.062,41.587,0.062,41.587H324.196
		h-251c0,0,0.132-40.992,0.132-41.587c0-0.584,0.023-1.915-0.928-2.012c-1.222-0.101-49.174-0.476-49.174-0.476H625.336z"/>
	
		<line fill="none" stroke="#010101" stroke-width="1.9166" stroke-linejoin="round" stroke-miterlimit="2" x1="73.321" y1="346.099" x2="73.321" y2="346.099"/>
	
		<line fill="none" stroke="#424143" stroke-width="5.3617" stroke-linejoin="round" stroke-miterlimit="2" x1="73.321" y1="346.099" x2="575.211" y2="346.099"/>
	<path fill="#939598" d="M324.335,29.448c5.871,0,10.642,4.675,10.642,10.661c0,5.866-4.771,10.658-10.642,10.658
		c-5.979,0-10.657-4.792-10.657-10.658C313.678,34.123,318.356,29.448,324.335,29.448"/>
	<path fill="#BDBEC0" d="M509.624,297.342c0,1.814-1.492,3.295-3.295,3.295H142.256c-1.825,0-3.303-1.48-3.303-3.295V77.663
		c0-1.798,1.478-3.295,3.303-3.295h364.073c1.803,0,3.295,1.497,3.295,3.295V297.342z"/>
	<path fill="none" stroke="#424143" stroke-width="5.3617" stroke-linejoin="round" stroke-miterlimit="2" d="M509.624,297.342
		c0,1.814-1.492,3.295-3.295,3.295H142.256c-1.825,0-3.303-1.48-3.303-3.295V77.663c0-1.798,1.478-3.295,3.303-3.295h364.073
		c1.803,0,3.295,1.497,3.295,3.295V297.342z"/>
	<path fill="none" stroke="#424143" stroke-width="5.3617" stroke-linejoin="round" d="M73.321,329.574
		c0,0-34.758,1.122-37.04,1.242c-2.166,0.135-3.573,1.721-3.573,3.801c0,1.45-0.557,11.539-0.557,11.539 M575.002,329.574
		c0,0,34.758,1.122,37.055,1.242c2.143,0.135,3.557,1.721,3.557,3.801c0,1.45,0.541,11.539,0.541,11.539"/>
	<path fill="none" stroke="#424143" stroke-width="5.3617" stroke-miterlimit="2" d="M608.622,330.967l3.373,0.132
		c0,0,2.854-0.085,3.248,3.097l-0.092,4.185c0,0.274-0.217,0.538-0.789,0.538h-5.678c0,0-0.564,0.022-0.865-0.318
		c-0.311-0.355-0.318-0.762-0.318-0.762v-5.796C607.5,332.042,607.602,330.917,608.622,330.967z"/>
	<path fill="#BDBEC0" d="M641.083,198.02c-0.016,23.964-0.115,45.326-0.217,63.889h-13.781c0.023-16.884,0.1-38.11,0.115-63.889
		H641.083z"/>
	<path fill="none" stroke="#424143" stroke-width="5.3617" stroke-linejoin="round" stroke-miterlimit="2" d="M641.083,198.02
		c-0.016,23.964-0.115,45.326-0.217,63.889h-13.781c0.023-16.884,0.1-38.11,0.115-63.889H641.083z"/>
	<path fill="#424143" d="M90.707,528.162c0-0.604-0.487-1.109-1.114-1.109c-0.603,0-1.106,0.506-1.106,1.109v13.318
		c0,0.611,0.503,1.11,1.106,1.11c0.626,0,1.114-0.499,1.114-1.11V528.162z"/>
	<path fill="#424143" d="M90.707,576.111c0-0.611-0.487-1.126-1.114-1.126c-0.603,0-1.106,0.515-1.106,1.126v13.303
		c0,0.611,0.503,1.125,1.106,1.125c0.626,0,1.114-0.514,1.114-1.125V576.111z"/>
	<path fill="#424143" d="M106.918,557.684c-0.619,0-1.113,0.507-1.113,1.103c0,0.614,0.495,1.133,1.113,1.133h13.311
		c0.611,0,1.114-0.519,1.114-1.133c0-0.596-0.503-1.103-1.114-1.103H106.918z"/>
	<path fill="#424143" d="M58.966,557.684c-0.619,0-1.106,0.507-1.106,1.103c0,0.614,0.487,1.133,1.106,1.133h13.326
		c0.611,0,1.106-0.519,1.106-1.133c0-0.596-0.495-1.103-1.106-1.103H58.966z"/>
	<path fill="#424143" d="M90.707,528.162c0-0.604-0.495-1.109-1.114-1.109c-0.611,0-1.106,0.506-1.106,1.109v13.318
		c0,0.611,0.495,1.11,1.106,1.11c0.619,0,1.114-0.499,1.114-1.11V528.162z"/>
	<path fill="#424143" d="M90.707,576.111c0-0.611-0.495-1.126-1.114-1.126c-0.611,0-1.106,0.515-1.106,1.126v13.303
		c0,0.611,0.495,1.125,1.106,1.125c0.619,0,1.114-0.514,1.114-1.125V576.111z"/>
	<path fill="#424143" d="M106.918,557.684c-0.619,0-1.113,0.507-1.113,1.103c0,0.614,0.495,1.133,1.113,1.133h13.311
		c0.611,0,1.098-0.519,1.098-1.133c0-0.596-0.487-1.103-1.098-1.103H106.918z"/>
	<path fill="#424143" d="M58.966,557.684c-0.619,0-1.106,0.507-1.106,1.103c0,0.614,0.487,1.133,1.106,1.133h13.326
		c0.604,0,1.106-0.519,1.106-1.133c0-0.596-0.502-1.103-1.106-1.103H58.966z"/>
	<polygon fill="#424143" points="557.731,415.893 553.409,409.778 555.643,409.778 558.969,414.721 562.28,409.778 564.467,409.778 
		560.182,415.861 564.893,422.641 562.627,422.641 558.922,417.057 555.209,422.641 553.059,422.641 	"/>
	<path fill="#424143" d="M556.733,482.72h2.73c1.408,0,2.035,0.882,2.035,1.896c0,1.392-1.076,1.922-2.391,1.922h-2.375V482.72z
		 M554.985,494.062h4.416c2.506,0,4.51-1.276,4.51-3.581c0-1.726-1.23-3.079-2.77-3.206v-0.039c1.309-0.429,2.213-1.373,2.213-2.818
		c0-2.182-1.67-3.218-3.906-3.218h-4.463V494.062z M556.733,488.076h2.584c1.686,0,2.746,0.742,2.746,2.266
		c0,1.837-1.725,2.193-2.777,2.193h-2.553V488.076z"/>
	<polygon fill="#424143" points="522.354,453.836 517.491,446.458 519.717,446.458 523.229,452.111 526.848,446.458 
		528.975,446.458 524.102,453.836 524.102,459.32 522.354,459.32 	"/>
	<path fill="#424143" d="M592.334,452.429l2.443-5.894h0.031l2.398,5.894H592.334z M588.413,457.143h2.035l1.275-3.175h6.109
		l1.301,3.175h2.033l-5.506-12.838h-1.578L588.413,457.143z"/>
	<path fill="#424143" d="M519.331,611.229L519.331,611.229c-0.24,0.332-0.301,0.846,0.154,1.275
		c1.508,1.098,2.096,2.963,1.523,4.711c-0.588,1.766-2.148,2.922-4.021,2.922c-1.855,0-3.441-1.156-3.998-2.922
		c-0.588-1.748,0.008-3.613,1.492-4.711c0.457-0.43,0.426-0.943,0.17-1.275c-0.262-0.318-0.734-0.5-1.26-0.166
		c-2.119,1.584-2.955,4.223-2.119,6.732c0.828,2.518,3.086,4.148,5.715,4.148c2.646,0,4.904-1.631,5.725-4.148
		c0.842-2.51,0-5.148-2.119-6.732C520.073,610.729,519.586,610.91,519.331,611.229"/>
	<path fill="#424143" d="M516.083,609.52v6.059c0,0.666,0.271,0.916,0.904,0.916c0.658,0,0.914-0.25,0.914-0.916v-6.059
		c0-0.658-0.248-0.91-0.914-0.91C516.338,608.609,516.083,608.861,516.083,609.52"/>
	<path fill="none" stroke="#424143" stroke-width="5.3617" stroke-linejoin="round" stroke-miterlimit="2" d="M575.643,313.99
		l36.174,0.673c9.535,1.021,16.729,5.835,20.596,10.692c4.131,5.132,7.557,10.852,7.557,22.619c0,0.742-0.1,0.642-0.666,1.102
		c-0.254,0.229-2.629,2.444-2.945,2.738c-0.355,0.332-0.891,0.657-1.416,0.936l-0.031,0.008c0.062,7.459,0.473,56.707,0.473,120.658
		c0,47.724-0.533,157.141-0.533,157.141c0,17.943-15.207,26.141-26.027,26.141c-10.826,0-78.006,1.709-270.311,1.709h-28.609
		c-192.304,0-259.491-1.709-270.319-1.709S13.55,648.5,13.55,630.557c0-2.34-0.046-3.4-0.046-7.473c0-0.908,0.016-1.105,0.016-1.631
		c0-0.539-0.271-35.512-0.271-67.451c0-31.965-0.201-51.324-0.201-52.082c0-0.762-0.016-1.354-0.016-1.632
		c0-0.271,0.085-35.376,0.085-71.483c0-33.068,0.317-70.181,0.356-76.189h0.008c-0.108-0.047-0.193-0.113-0.217-0.128
		c-0.534-0.251-1.075-0.562-1.438-0.925c-0.309-0.301-2.691-2.514-2.939-2.727c-0.564-0.459-0.665-0.34-0.665-1.109
		c0-11.76,3.434-17.479,7.541-22.634c3.411-4.246,9.273-9.115,17.232-10.128c11.013-1.412,40.326-1.229,40.326-1.229
		s0.046-2.004-0.928-2.004l-49.167-0.483c0,0,0.743,3.597-1.485,3.581c-6.234-0.097-11.803-0.166-12.305-0.166
		c-0.936,0-1.702-0.491-1.702-1.079c0-26.868-0.449-71.182-0.449-127.406c0-39.772,0.302-125.457,0.503-145.202
		C7.974,22.143,23.095,8.933,39.7,8.933c19.699,0,122.263-1.647,283.784-1.647c161.538,0,265.524,1.647,285.215,1.647
		c16.613,0,31.742,13.21,31.912,32.043c0.201,19.745,0.502,105.43,0.502,145.202c0,56.225-0.441,100.538-0.441,127.406
		c0,0.588-0.766,1.079-1.709,1.079c-0.502,0-6.047,0.089-12.281,0.182c-2.143,0.016-1.346-3.597-1.346-3.597h-49.693V313.99z"/>
	<path fill="#FFFFFF" d="M627.649,197.988c-1.277,0-1.602,0.437-1.602,1.245v25.944c0,0.728,0.473,0.967,1.238,0.967
		c0.781,0,11.973,0.016,12.598,0.016c1.223,0,1.16-0.406,1.16-0.809c0-0.421,0.094-25.801,0.094-26.586
		c0-0.522-0.248-0.746-0.873-0.746C639.614,198.02,627.649,197.988,627.649,197.988"/>
	<path fill="none" stroke="#424143" stroke-width="5.3617" stroke-linejoin="round" stroke-miterlimit="2" d="M627.649,197.988
		c-1.277,0-1.602,0.437-1.602,1.245v25.944c0,0.728,0.473,0.967,1.238,0.967c0.781,0,11.973,0.016,12.598,0.016
		c1.223,0,1.16-0.406,1.16-0.809c0-0.421,0.094-25.801,0.094-26.586c0-0.522-0.248-0.746-0.873-0.746
		C639.614,198.02,627.649,197.988,627.649,197.988z"/>
	<path fill="#424143" d="M626.489,211.55c0.232-0.401,0.881-1.407,1.059-1.662c0.164-0.236,0.449-0.236,0.689-0.236h11.4
		c0.285,0,0.541-0.031,0.541,0.568v3.62c0,0.521-0.186,0.673-0.465,0.673h-11.377c-0.557,0-0.773-0.371-0.912-0.538
		c-0.016-0.03-0.643-1.109-0.975-1.551C626.311,212.208,626.249,211.956,626.489,211.55"/>
	<path fill="#424143" d="M312.633,629.922c-2.096-1.791-4.207-3.59-6.303-5.371c-0.193-0.16-0.363-0.16-0.549,0
		c-2.119,1.781-4.216,3.58-6.319,5.371c-0.387,0.312-0.225,0.75,0.278,0.75h0.812c0.301,0,0.417,0.127,0.417,0.402v5.521
		c0,0.295,0.132,0.402,0.426,0.402h9.304c0.303,0,0.434-0.107,0.434-0.402v-5.521c0-0.275,0.116-0.402,0.418-0.402h0.812
		C312.873,630.672,313.012,630.234,312.633,629.922 M308.171,634.035c0,0.311-0.14,0.438-0.441,0.438h-3.38
		c-0.301,0-0.417-0.127-0.417-0.438v-2.523c0-0.303,0.116-0.438,0.417-0.438h3.38c0.302,0,0.426,0.119,0.441,0.406V634.035z"/>
	<path fill="#424143" d="M409.018,633.596c0.348,0.506,0.936,0.75,1.5,0.75c0.627,0,1.408-0.402,1.408-1.172
		c0-1.633-3.48-0.635-3.48-3.365c0-0.85,0.695-1.979,2.396-1.979c0.766,0,1.5,0.15,2.035,0.807l-0.781,0.705
		c-0.248-0.383-0.713-0.619-1.254-0.619c-1.066,0-1.369,0.635-1.369,1.086c0,1.756,3.465,0.705,3.465,3.246
		c0,1.361-1.09,2.188-2.451,2.188c-0.904,0-1.779-0.316-2.242-0.975L409.018,633.596z"/>
	<polygon fill="#424143" points="416.079,628.912 413.813,628.912 413.813,628.008 419.303,628.008 419.303,628.912 
		417.038,628.912 417.038,635.057 416.079,635.057 	"/>
	<path fill="#424143" d="M421.856,628.008h0.875l3.023,7.049h-1.121l-0.713-1.744h-3.363l-0.697,1.744h-1.113L421.856,628.008z
		 M423.573,632.482l-1.299-3.242h-0.031l-1.33,3.242H423.573z"/>
	<path fill="#424143" d="M426.907,628.004h2.49c1.803,0,2.25,1.086,2.25,1.979c0,0.898-0.648,1.736-1.732,1.857l2.004,3.213h-1.191
		l-1.801-3.098h-1.061v3.098h-0.959V628.004z M427.866,631.109h1.26c0.744,0,1.51-0.182,1.51-1.127c0-0.955-0.766-1.129-1.51-1.129
		h-1.26V631.109z"/>
	<polygon fill="#424143" points="434.54,628.912 432.282,628.912 432.282,628.008 437.774,628.008 437.774,628.912 435.485,628.912 
		435.485,635.057 434.54,635.057 	"/>
	<polygon fill="#424143" points="317.932,628.023 318.891,628.023 318.891,630.941 322.549,630.941 322.549,628.023 
		323.492,628.023 323.492,635.053 322.549,635.053 322.549,631.855 318.891,631.855 318.891,635.053 317.932,635.053 	"/>
	<path fill="#424143" d="M324.861,631.553c0-2.107,1.54-3.703,3.682-3.703c2.156,0,3.682,1.596,3.682,3.703
		c0,2.086-1.525,3.701-3.682,3.701C326.401,635.254,324.861,633.639,324.861,631.553 M331.211,631.553
		c0-1.535-1.053-2.811-2.668-2.811c-1.617,0-2.654,1.275-2.654,2.811c0,1.547,1.037,2.797,2.654,2.797
		C330.159,634.35,331.211,633.1,331.211,631.553"/>
	<polygon fill="#424143" points="333.524,628.023 334.946,628.023 337.182,633.359 337.229,633.359 339.456,628.023 
		340.864,628.023 340.864,635.053 339.92,635.053 339.92,629.264 339.897,629.264 337.522,635.053 336.872,635.053 334.499,629.264 
		334.467,629.264 334.467,635.053 333.524,635.053 	"/>
	<polygon fill="#424143" points="342.612,628.023 347.167,628.023 347.167,628.924 343.579,628.924 343.579,631.016 
		346.918,631.016 346.918,631.916 343.579,631.916 343.579,634.176 347.352,634.176 347.352,635.053 342.612,635.053 	"/>
	<path fill="#424143" d="M209.459,633.596c0.34,0.506,0.92,0.75,1.492,0.75c0.619,0,1.4-0.402,1.4-1.172
		c0-1.633-3.48-0.635-3.48-3.365c0-0.85,0.703-1.979,2.397-1.979c0.773,0,1.516,0.15,2.026,0.807l-0.773,0.705
		c-0.24-0.383-0.696-0.619-1.253-0.619c-1.06,0-1.369,0.635-1.369,1.086c0,1.756,3.48,0.705,3.48,3.246
		c0,1.361-1.114,2.188-2.46,2.188c-0.904,0-1.778-0.316-2.258-0.975L209.459,633.596z"/>
	<polygon fill="#424143" points="214.787,628.008 219.343,628.008 219.343,628.908 215.731,628.908 215.731,631 219.088,631 
		219.088,631.902 215.731,631.902 215.731,634.16 219.514,634.16 219.514,635.053 214.787,635.053 	"/>
	<polygon fill="#424143" points="220.867,628.008 221.834,628.008 221.834,634.16 225.059,634.16 225.059,635.053 220.867,635.053 	
		"/>
	<polygon fill="#424143" points="226.041,628.008 230.596,628.008 230.596,628.908 226.984,628.908 226.984,631 230.333,631 
		230.333,631.902 226.984,631.902 226.984,634.16 230.759,634.16 230.759,635.053 226.041,635.053 	"/>
	<path fill="#424143" d="M237.031,629.539c-0.387-0.529-1.052-0.816-1.709-0.816c-1.578,0-2.63,1.275-2.63,2.857
		c0,1.496,0.989,2.766,2.63,2.766c0.812,0,1.431-0.363,1.84-0.951l0.812,0.604c-0.209,0.285-1.044,1.244-2.66,1.244
		c-2.243,0-3.628-1.871-3.628-3.662c0-2.178,1.493-3.75,3.666-3.75c0.929,0,1.903,0.348,2.476,1.098L237.031,629.539z"/>
	<polygon fill="#424143" points="240.612,628.912 238.338,628.912 238.338,628.008 243.838,628.008 243.838,628.912 
		241.571,628.912 241.571,635.057 240.612,635.057 	"/>
	<rect x="292.949" y="624.113" fill="#BDBEC0" width="62.477" height="14.131"/>
	<rect x="391.754" y="624.113" fill="#BDBEC0" width="62.5" height="14.131"/>
	<rect x="194.145" y="624.113" fill="#BDBEC0" width="62.501" height="14.131"/>
</g>
</svg>
