<?xml version="1.0" encoding="iso-8859-1"?>
<!-- Uploaded to: SVG Repo, www.svgrepo.com, Generator: SVG Repo Mixer Tools -->
<svg height="800px" width="800px" version="1.1" id="Layer_1" xmlns="http://www.w3.org/2000/svg" xmlns:xlink="http://www.w3.org/1999/xlink" 
	 viewBox="0 0 511.999 511.999" xml:space="preserve">
<path style="fill:#666666;" d="M381.899,491.954c-58.104,10.794-116.208,14.08-174.313,9.835
	c-25.315-1.852-50.629-5.137-75.944-9.835c10.907-41.856,15.322-83.724,13.278-125.58l48.541-48.541h0.011
	c14.566-1.366,29.12-2.27,43.685-2.687c45.221-1.321,90.419,1.908,135.629,9.71C364.352,380.555,367.39,436.255,381.899,491.954z"/>
<path style="fill:#4D4D4D;" d="M237.158,315.146c-1.118,51.86-6.571,139.581-29.571,186.631v0.011
	c-25.315-1.852-50.629-5.137-75.944-9.835c10.907-41.856,15.322-83.724,13.278-125.58l48.541-48.541h0.011
	C208.038,316.467,222.592,315.564,237.158,315.146z"/>
<g>
	<path style="fill:#F7B239;" d="M237.237,273.707c-6.221,6.47-12.511,12.872-18.867,19.229l-24.897,24.897h-0.011l-48.541,48.541
		l-57.054,57.054c-5.544,5.544-14.532,5.544-20.064,0c-5.544-5.544-5.544-14.532,0-20.064l73.663-73.663l5.939-5.95l49.252-49.252
		l1.637-1.637c37.057-37.058,76.08-72.049,116.796-104.737l40.705-32.688l-32.688,40.705
		C296.018,209.879,267.35,242.453,237.237,273.707z"/>
	<polygon style="fill:#F7B239;" points="244.644,33.138 227.662,49.691 231.67,73.064 210.68,62.032 189.69,73.064 193.698,49.691 
		176.728,33.138 200.191,29.728 210.68,8.467 221.181,29.728 	"/>
</g>
<polygon style="fill:#F95428;" points="148.195,170.461 127.961,190.198 132.737,218.053 107.716,204.899 82.684,218.053 
	87.471,190.198 67.226,170.461 95.206,166.396 107.716,141.048 120.227,166.396 "/>
<g>
	<path style="fill:#E54728;" d="M196.656,274.498l-49.252,49.252c-2.213,0.35-4.437,0.723-6.65,1.107
		c-2.236-14.758-5.273-29.504-9.112-44.261l-0.203-3.105C153.163,276.135,174.91,275.13,196.656,274.498z"/>
	<path style="fill:#E54728;" d="M382.091,277.591l-0.192,3.003c-3.839,14.758-6.876,29.504-9.112,44.261
		c-59.764-10.309-119.528-12.646-179.315-7.023l24.897-24.897c6.357-6.357,12.646-12.759,18.867-19.229
		C285.54,273.256,333.855,274.543,382.091,277.591z"/>
</g>
<g>
	<path style="fill:#333333;" d="M361.289,88.978c4.678,0,8.468-3.792,8.468-8.468V19.537c0-4.677-3.79-8.468-8.468-8.468
		s-8.468,3.792-8.468,8.468v60.972C352.821,85.186,356.612,88.978,361.289,88.978z"/>
	<path style="fill:#333333;" d="M361.289,173.661c-4.678,0-8.468,3.792-8.468,8.468v60.972c0,4.677,3.79,8.468,8.468,8.468
		s8.468-3.792,8.468-8.468v-60.972C369.758,177.453,365.967,173.661,361.289,173.661z"/>
	<path style="fill:#333333;" d="M249.507,122.851c-4.678,0-8.468,3.792-8.468,8.468c0,4.677,3.79,8.468,8.468,8.468h60.972
		c4.678,0,8.468-3.792,8.468-8.468c0-4.677-3.79-8.468-8.468-8.468H249.507z"/>
	<path style="fill:#333333;" d="M403.631,131.319c0,4.677,3.79,8.468,8.468,8.468h60.972c4.678,0,8.468-3.792,8.468-8.468
		c0-4.677-3.79-8.468-8.468-8.468h-60.972C407.422,122.851,403.631,126.643,403.631,131.319z"/>
	<path style="fill:#333333;" d="M397.218,103.859c2.167,0,4.335-0.827,5.989-2.481l20.527-20.527
		c3.308-3.307,3.308-8.668,0.001-11.975c-3.308-3.307-8.669-3.308-11.977,0L391.23,89.403c-3.307,3.307-3.307,8.668,0,11.975
		C392.883,103.033,395.05,103.859,397.218,103.859z"/>
	<path style="fill:#333333;" d="M411.757,193.763c1.654,1.654,3.822,2.481,5.989,2.481s4.335-0.826,5.989-2.481
		c3.307-3.307,3.307-8.669-0.001-11.975l-20.527-20.527c-3.308-3.307-8.669-3.307-11.977,0s-3.307,8.669,0,11.975L411.757,193.763z"
		/>
	<path style="fill:#333333;" d="M319.372,101.379c1.654,1.654,3.821,2.481,5.989,2.481c2.167,0,4.335-0.827,5.989-2.481
		c3.307-3.307,3.307-8.668,0-11.975l-20.527-20.527c-3.307-3.307-8.668-3.308-11.977,0c-3.307,3.307-3.307,8.668,0,11.975
		L319.372,101.379z"/>
	<path style="fill:#333333;" d="M184.604,52.647l-3.255,18.983c-0.545,3.176,0.761,6.387,3.368,8.282
		c1.476,1.073,3.222,1.618,4.978,1.618c1.347,0,2.701-0.322,3.939-0.972l17.047-8.963l17.046,8.963
		c2.852,1.499,6.309,1.25,8.918-0.645c2.608-1.895,3.915-5.106,3.368-8.282l-3.255-18.983l13.791-13.443
		c2.308-2.25,3.138-5.615,2.142-8.681s-3.646-5.3-6.837-5.763l-19.058-2.77l-8.523-17.27C216.85,1.83,213.907,0,210.683,0
		c-3.222,0-6.167,1.83-7.594,4.721l-8.524,17.27l-19.058,2.77c-3.19,0.463-5.841,2.697-6.837,5.763
		c-0.996,3.066-0.165,6.431,2.142,8.681L184.604,52.647z M201.407,38.111c2.758-0.401,5.143-2.133,6.376-4.633l2.9-5.876
		l2.898,5.875c1.234,2.5,3.618,4.232,6.376,4.633l6.483,0.942l-4.691,4.574c-1.996,1.945-2.906,4.749-2.434,7.495l1.107,6.457
		l-5.799-3.049c-2.467-1.296-5.413-1.296-7.881,0l-5.8,3.05l1.107-6.459c0.472-2.747-0.439-5.55-2.434-7.495l-4.691-4.574
		L201.407,38.111z"/>
	<path style="fill:#333333;" d="M78.369,193.151l-4.025,23.475c-0.545,3.177,0.761,6.389,3.368,8.283
		c1.476,1.072,3.222,1.617,4.978,1.617c1.347,0,2.701-0.322,3.939-0.972l21.082-11.083l21.083,11.083
		c2.854,1.501,6.311,1.25,8.918-0.645c2.608-1.895,3.915-5.105,3.368-8.282l-4.025-23.475l17.055-16.625
		c2.308-2.25,3.138-5.615,2.142-8.681s-3.646-5.3-6.837-5.763l-23.57-3.426l-10.541-21.359c-1.427-2.891-4.371-4.721-7.594-4.721
		c-3.224,0-6.167,1.83-7.594,4.721l-10.54,21.358l-23.57,3.426c-3.19,0.463-5.841,2.697-6.837,5.763
		c-0.996,3.066-0.165,6.43,2.142,8.681L78.369,193.151z M96.418,174.777c2.758-0.401,5.143-2.133,6.376-4.633l4.916-9.963
		l4.917,9.964c1.234,2.499,3.618,4.232,6.376,4.633l10.995,1.599l-7.957,7.756c-1.996,1.945-2.906,4.749-2.434,7.496l1.878,10.951
		l-9.836-5.171c-1.234-0.648-2.587-0.972-3.941-0.972s-2.706,0.324-3.941,0.972l-9.835,5.171l1.878-10.951
		c0.472-2.747-0.439-5.551-2.434-7.496l-7.957-7.756L96.418,174.777z"/>
	<path style="fill:#333333;" d="M489.358,278.714c-76.831-8.964-154.902-13.504-232.374-13.545
		c25.329-27.026,49.7-55.047,72.728-83.725l32.687-40.71c2.705-3.369,2.439-8.235-0.615-11.29c-3.057-3.055-7.922-3.322-11.29-0.615
		l-40.71,32.688c-40.545,32.555-79.817,67.759-116.75,104.639c-56.689,1.769-113.994,5.981-170.391,12.558
		c-4.645,0.542-7.973,4.747-7.43,9.392c0.502,4.312,4.162,7.488,8.399,7.488c0.327,0,0.659-0.019,0.992-0.058
		c33.051-3.855,66.42-6.868,99.79-9.074c3.311,13.205,6,26.531,7.993,39.688c0.029,0.186,0.053,0.373,0.081,0.559L61.81,397.369
		c-4.28,4.28-6.638,9.971-6.638,16.024s2.358,11.744,6.637,16.024h0.001c4.279,4.28,9.97,6.637,16.023,6.637
		c6.053,0,11.743-2.358,16.023-6.637l43.058-43.058c-0.029,34.456-4.529,69.17-13.465,103.462c-0.592,2.275-0.212,4.694,1.048,6.678
		c1.26,1.984,3.289,3.355,5.6,3.784c42.028,7.81,84.352,11.716,126.675,11.716c42.323,0,84.647-3.906,126.674-11.716
		c2.311-0.429,4.34-1.8,5.6-3.784c1.26-1.984,1.639-4.401,1.048-6.676c-14.15-54.323-17.156-109.398-8.935-163.694
		c1.987-13.118,4.67-26.411,7.968-39.577c32.885,2.194,65.688,5.183,98.266,8.983c0.333,0.04,0.664,0.058,0.992,0.058
		c4.238,0,7.897-3.176,8.399-7.487C497.33,283.461,494.003,279.256,489.358,278.714z M141.579,285.404
		c11.304-0.649,22.603-1.231,33.882-1.687l-28.259,28.259C145.614,303.131,143.73,294.246,141.579,285.404z M81.88,417.442
		c-1.081,1.082-2.518,1.677-4.047,1.677s-2.967-0.595-4.048-1.677c-1.082-1.082-1.677-2.519-1.677-4.048
		c0-1.529,0.595-2.966,1.677-4.048l130.497-130.497c30.153-30.154,61.897-59.178,94.625-86.53
		c-27.356,32.732-56.377,64.472-86.531,94.626L81.88,417.442z M142.055,485.219c9.15-38.324,12.995-77.106,11.476-115.476
		l43.733-43.733c55.106-4.929,110.891-2.955,165.999,5.868c-6.676,50.929-3.925,102.425,8.228,153.34
		C295.322,498.342,218.227,498.342,142.055,485.219z M365.795,315.132c-49.828-7.968-100.199-10.488-150.161-7.492l8.72-8.72
		c5.53-5.53,11.009-11.129,16.46-16.761c43.588-0.335,87.409,0.781,131.132,3.322C369.55,295.345,367.492,305.266,365.795,315.132z"
		/>
</g>
</svg>