<?xml version="1.0" encoding="UTF-8" standalone="no"?>
<!-- Created with Inkscape (http://www.inkscape.org/) -->
<svg width="800px" height="800px" viewBox="0 0 250 550" xmlns:dc="http://purl.org/dc/elements/1.1/" xmlns:cc="http://creativecommons.org/ns#" xmlns:rdf="http://www.w3.org/1999/02/22-rdf-syntax-ns#" xmlns:svg="http://www.w3.org/2000/svg" xmlns="http://www.w3.org/2000/svg" xmlns:xlink="http://www.w3.org/1999/xlink" xmlns:sodipodi="http://sodipodi.sourceforge.net/DTD/sodipodi-0.dtd" xmlns:inkscape="http://www.inkscape.org/namespaces/inkscape" id="svg2" sodipodi:version="0.32" inkscape:version="0.45+0.46pre0+devel" sodipodi:docname="desenho2.svg" inkscape:output_extension="org.inkscape.output.svg.inkscape" version="1.1">
	<defs id="defs4">
		<linearGradient inkscape:collect="always" id="linearGradient3393">
			<stop style="stop-color:#ffffff;stop-opacity:1;" offset="0" id="stop3395"/>
			<stop style="stop-color:#ffffff;stop-opacity:0;" offset="1" id="stop3397"/>
		</linearGradient>
		<linearGradient inkscape:collect="always" id="linearGradient3360">
			<stop style="stop-color:#a05a2c;stop-opacity:1" offset="0" id="stop3362"/>
			<stop style="stop-color:#d38d5f;stop-opacity:1" offset="1" id="stop3364"/>
		</linearGradient>
		<linearGradient id="linearGradient2520">
			<stop style="stop-color:#808080;stop-opacity:1" offset="0" id="stop2522"/>
			<stop id="stop2528" offset="0.37070417" style="stop-color:#e6e6e6;stop-opacity:1"/>
			<stop style="stop-color:#e6e6e6;stop-opacity:1" offset="0.65374422" id="stop2530"/>
			<stop style="stop-color:#999999;stop-opacity:1" offset="1" id="stop2524"/>
		</linearGradient>
		<linearGradient inkscape:collect="always" xlink:href="#linearGradient2520" id="linearGradient2526" x1="40.688042" y1="171.64256" x2="191.10674" y2="225.828" gradientUnits="userSpaceOnUse"/>
		<filter inkscape:collect="always" id="filter3315">
			<feGaussianBlur inkscape:collect="always" stdDeviation="7.9164063" id="feGaussianBlur3317"/>
		</filter>
		<clipPath clipPathUnits="userSpaceOnUse" id="clipPath3321">
			<path id="path3323" d="M 115.15545,213.18362 L 189.85111,173.56889 C 189.85111,164.19108 192.45051,150.77168 217.94209,114.88416 C 227.15204,101.91821 227.1187,78.616494 222.00085,60.979634 C 214.82717,78.726939 202.30026,85.781335 194.05229,95.051366 C 198.32023,88.518069 204.11098,81.896575 208.57843,76.795019 C 214.33501,70.221287 218.61854,62.798366 218.61854,55.538333 C 213.88583,67.246766 209.95906,71.654701 205.23172,75.930517 C 196.13644,84.157051 187.74584,95.57562 184.08337,104.40838 C 186.19313,96.524045 191.35667,88.000036 197.75504,81.727792 C 204.4609,75.15408 209.69619,69.573997 212.88642,60.471106 C 202.76951,69.226127 195.10616,68.834467 189.28146,72.42163 C 181.93255,76.947501 176.51771,80.069424 172.2631,83.558512 C 174.66129,80.6388 177.05775,78.035828 179.20573,76.184785 C 192.76178,64.502723 201.94028,66.673711 203.66517,60.776222 C 192.95122,64.241014 176.7718,54.550914 164.644,63.064622 C 159.98686,66.333927 154.42829,78.015324 153.39337,88.745554 C 153.08819,85.229117 153.36371,81.679676 154.42586,77.761236 C 156.25133,71.352801 158.64416,66.165083 162.579,62.301825 C 175.45791,49.657235 195.60126,65.448557 203.66517,53.555049 C 192.02188,57.275119 178.39274,47.437889 162.75702,57.877579 C 156.84693,61.823671 151.64453,69.157326 150.33148,82.338035 L 150.33148,85.745205 C 147.59292,75.390264 150.46243,69.277439 155.52956,60.776222 C 146.98311,64.04716 142.79378,72.8019 142.17833,83.100831 C 140.05948,74.780626 141.56058,67.755153 152.14725,56.707961 C 125.5929,56.707911 113.98648,74.631047 113.16167,92.00016 C 111.22547,84.714228 112.92562,78.697685 115.83192,73.082732 C 120.13017,64.778534 128.11284,59.704297 134.80846,57.216488 C 128.73327,57.216458 122.82811,58.510887 118.46656,62.657799 C 112.73077,68.111358 108.90664,76.854385 106.68188,85.287526 C 108.17424,72.395562 113.23659,62.615097 122.52533,56.707961 C 109.43346,56.707911 98.385027,71.226104 94.078319,85.490936 C 95.428122,71.168059 105.27507,59.16841 114.05175,55.538333 C 96.27859,55.538302 82.912565,68.501245 77.985643,81.982061 C 78.852073,72.249661 84.69462,65.620405 89.663515,61.335608 C 80.848112,65.803433 74.337909,72.542803 72.004294,81.168406 C 74.211651,68.454359 81.887522,62.026386 91.728504,53.911023 C 74.398189,55.812097 64.451309,65.304744 58.902292,80.914137 C 59.593132,70.88141 65.553871,64.073289 70.615767,59.708299 C 63.696759,63.215008 59.166143,67.841515 56.730493,73.845528 C 58.286191,67.886234 62.502973,62.231914 70.188527,53.30078 C 53.628702,46.370268 40.620613,61.882029 36.935077,76.235633 C 35.516711,81.759577 35.087911,89.143263 35.54655,96.983792 C 29.17091,77.859927 38.194236,64.70313 51.211987,49.43593 C 26.243046,62.836251 23.978997,90.932761 30.09925,115.08758 C 21.303215,95.140491 25.375522,76.751731 31.52338,61.793287 C 17.241002,78.596887 16.195154,101.60073 24.865569,125.61421 C 24.793132,125.71656 24.72441,125.81645 24.651949,125.91933 C 32.285689,144.80479 38.280971,158.46545 41.349882,174.73852 L 115.15545,213.18362 z" style="fill:#ffeeaa;fill-opacity:1;fill-rule:evenodd;stroke:none;stroke-width:1px;stroke-linecap:butt;stroke-linejoin:miter;stroke-opacity:1"/>
		</clipPath>
		<filter inkscape:collect="always" id="filter3350">
			<feGaussianBlur inkscape:collect="always" stdDeviation="3.8186213" id="feGaussianBlur3352"/>
		</filter>
		<clipPath clipPathUnits="userSpaceOnUse" id="clipPath3356">
			<path id="path3358" d="M 117.63662,508.82417 C 120.65368,508.82418 123.65302,507.48827 125.9647,504.76043 C 125.96471,504.76042 147.68699,471.55185 151.0907,460.41262 C 159.38019,433.28386 143.48206,394.67307 140.67174,366.45184 L 133.15874,290.86622 C 132.08034,280.03669 131.39218,273.5266 140.35279,265.88304 L 190.21499,223.33743 C 193.07001,220.902 193.06999,217.00931 190.21499,214.57387 L 45.058242,214.57387 C 42.203224,217.00936 42.203235,220.902 45.058242,223.33743 L 94.636924,265.60034 C 103.7179,273.34576 103.09095,281.2403 102.07904,291.36094 L 94.566048,366.45184 C 91.744472,394.67193 75.857611,433.28387 84.147081,460.41262 C 87.550803,471.55184 109.27309,504.76043 109.27309,504.76043 C 111.58476,507.48825 114.61956,508.82416 117.63662,508.82417 z M 114.65977,463.91098 C 106.74311,463.91098 100.30711,455.70765 100.30711,445.57113 C 100.30711,435.4346 106.74311,427.19595 114.65977,427.19595 C 122.57643,427.19596 129.01242,435.43461 129.01242,445.57113 C 129.01242,455.70764 122.57643,463.91098 114.65977,463.91098 z" style="fill:#a05a2c;fill-opacity:1;stroke:none;stroke-width:2.5;stroke-linecap:round;stroke-linejoin:round;stroke-miterlimit:4;stroke-dashoffset:0;stroke-opacity:1"/>
		</clipPath>
		<linearGradient inkscape:collect="always" xlink:href="#linearGradient3360" id="linearGradient3366" x1="162.4133" y1="371.96228" x2="26.874805" y2="350.82538" gradientUnits="userSpaceOnUse"/>
		<linearGradient inkscape:collect="always" xlink:href="#linearGradient2520" id="linearGradient3370" gradientUnits="userSpaceOnUse" x1="40.688042" y1="171.64256" x2="191.10674" y2="225.828" gradientTransform="matrix(1.3567057,0,0,1.7167837,-41.341255,-142.4502)"/>
		<filter inkscape:collect="always" id="filter3381">
			<feGaussianBlur inkscape:collect="always" stdDeviation="3.7139132" id="feGaussianBlur3383"/>
		</filter>
		<clipPath clipPathUnits="userSpaceOnUse" id="clipPath3387">
			<path sodipodi:nodetypes="cssssssss" id="path3389" d="M 45.149393,171.64628 C 91.161767,174.18511 138.15275,173.24371 187.00831,171.64628 C 188.5031,171.59741 189.54506,172.85918 189.70792,174.34588 C 191.23771,188.31091 191.88078,207.91329 189.70792,223.12496 C 189.49644,224.60551 188.50217,225.89645 187.00831,225.82456 C 140.56028,223.58917 93.395449,223.26521 45.149393,225.82456 C 43.65591,225.90378 42.686625,224.60167 42.449792,223.12496 C 39.915772,207.32509 40.293382,190.96498 42.449792,174.34588 C 42.642239,172.86272 43.656076,171.56388 45.149393,171.64628 z" style="fill:url(#linearGradient3391);fill-opacity:1;stroke:none;stroke-width:2.5;stroke-linecap:round;stroke-linejoin:round;stroke-miterlimit:4;stroke-dashoffset:0;stroke-opacity:1"/>
		</clipPath>
		<linearGradient inkscape:collect="always" xlink:href="#linearGradient2520" id="linearGradient3391" gradientUnits="userSpaceOnUse" x1="40.688042" y1="171.64256" x2="191.10674" y2="225.828"/>
		<linearGradient inkscape:collect="always" xlink:href="#linearGradient3393" id="linearGradient3399" x1="-14.194967" y1="149.14711" x2="291.97891" y2="325.91669" gradientUnits="userSpaceOnUse"/>
		<linearGradient inkscape:collect="always" xlink:href="#linearGradient3393" id="linearGradient3401" x1="-35.777142" y1="161.24284" x2="330.77237" y2="372.8703" gradientUnits="userSpaceOnUse"/>
		<filter inkscape:collect="always" id="filter3407">
			<feGaussianBlur inkscape:collect="always" stdDeviation="0.96294958" id="feGaussianBlur3409"/>
		</filter>
		<filter inkscape:collect="always" id="filter3411">
			<feGaussianBlur inkscape:collect="always" stdDeviation="1.7835853" id="feGaussianBlur3413"/>
		</filter>
	</defs>
	<g inkscape:label="Camada 1" inkscape:groupmode="layer" id="layer1">
		<path style="fill:#000000;fill-opacity:1;fill-rule:evenodd;stroke:none;stroke-width:1px;stroke-linecap:butt;stroke-linejoin:miter;stroke-opacity:1" d="M 118.17746,225.71429 C 118.85998,225.65928 119.52732,225.43708 120.16723,225.0652 L 193.40472,182.92898 C 195.99982,181.41806 197.73027,177.54243 197.73334,173.24685 C 197.73334,169.50819 197.85114,166.41229 201.15435,157.99343 C 204.43792,149.6246 211.00546,136.93867 223.28617,118.18308 C 235.13082,100.09345 234.53301,71.230187 228.73186,49.542687 C 228.12011,47.238845 226.94387,45.517394 225.5203,44.404124 C 224.69407,40.73065 222.62102,38.039384 220.10952,37.534675 C 217.45712,37.001667 214.86308,38.988203 213.51186,42.565059 C 213.50022,42.564764 213.4886,42.564764 213.47696,42.565059 C 213.45879,42.6138 213.42651,42.681305 213.40714,42.727329 C 212.57088,42.778944 211.76348,43.070563 210.99847,43.592771 C 210.70381,41.321453 210.07172,39.218705 208.90398,37.696946 C 207.31692,35.628694 205.17242,34.782136 203.14412,35.47925 C 199.24172,36.831832 193.55538,35.658985 186.49289,34.884258 C 179.39987,34.106191 170.7453,34.263026 161.67313,40.834174 C 160.78956,41.474169 160.0674,42.293016 159.33427,43.05187 C 158.08677,40.432765 156.23934,38.609001 154.09804,38.616478 C 149.10158,38.616461 144.66238,39.448012 140.51873,40.671904 C 139.48247,39.724071 138.30737,39.145748 137.09772,39.15738 C 134.2733,39.157362 131.40036,39.540095 128.54521,40.293273 C 127.49444,39.270181 126.30156,38.626067 125.05438,38.616478 C 123.45528,38.616478 121.93097,38.930184 120.44649,39.26556 C 119.3465,38.11177 118.08235,37.372734 116.74622,37.372405 C 110.91652,37.372388 105.57476,38.872857 100.65352,41.212805 C 99.429276,37.653933 97.026081,35.343635 94.370038,35.64152 C 88.829034,36.300918 83.889691,38.04243 79.429311,40.455543 C 78.584286,38.104984 77.317916,36.193534 75.624313,35.42516 C 70.124349,32.928082 64.858232,32.959376 60.020329,34.343357 C 58.196801,31.273096 55.354578,30.036085 52.794324,31.530669 C 46.899109,34.962892 42.139893,39.596193 38.167771,44.782755 C 35.957214,43.486443 33.460911,43.998318 31.605022,46.351369 C 23.502635,56.692677 18.696189,69.933339 17.537001,84.106289 C 16.453337,97.355847 18.460868,110.98956 22.563787,124.24118 C 22.690608,125.46386 22.90018,126.62505 23.29686,127.70294 C 30.839107,147.94484 36.321387,161.755 39.005569,177.19543 C 39.570434,180.4435 41.154665,183.07592 43.194558,184.22715 L 115.55934,225.11929 C 116.39859,225.5816 117.28824,225.79398 118.17746,225.71429 z" id="path3292"/>
		<path style="fill:#000000;fill-opacity:1;stroke:none;stroke-width:2.5;stroke-linecap:round;stroke-linejoin:round;stroke-miterlimit:4;stroke-dashoffset:0;stroke-opacity:1" d="M 118.46148,519.10246 C 123.62051,519.10249 128.73448,516.68963 132.26323,512.5648 C 132.43843,512.34684 132.60015,512.14477 132.7475,511.90757 C 132.74751,511.90756 138.28964,503.51587 144.26625,493.71279 C 150.24287,483.90973 156.57246,473.48442 158.93276,465.83258 C 163.74623,450.22791 161.42431,432.86996 158.0334,415.9526 C 154.6425,399.03525 149.979,382.38293 148.65928,369.25497 L 141.08389,293.77777 C 140.53956,288.36287 140.29067,284.62787 140.80716,282.15525 C 141.32367,279.68265 142.25765,277.88228 145.9612,274.75281 L 196.25627,232.24067 C 199.0929,229.84368 200.85686,226.24422 200.85685,222.58983 C 200.85684,218.93542 199.09285,215.37054 196.25627,212.97358 C 194.98131,211.90598 193.3617,211.3385 191.69028,211.34781 L 45.30187,211.34781 C 43.630463,211.3385 42.010837,211.90599 40.73588,212.97358 C 37.899298,215.37053 36.135287,218.93545 36.135299,222.58983 C 36.135321,226.2442 37.899287,229.84371 40.73588,232.24067 L 90.719635,274.47608 C 94.342109,277.53669 95.395198,279.71843 95.977442,282.57034 C 96.559697,285.42226 96.345533,289.27903 95.839079,294.29663 L 88.263686,369.25497 C 86.938187,382.38736 82.304886,399.03459 78.924161,415.9526 C 75.543446,432.87061 73.212378,450.23124 78.024799,465.83258 C 80.385111,473.48442 86.714714,483.90972 92.691313,493.71279 C 98.667923,503.51589 104.21006,511.90757 104.21006,511.90757 C 104.35742,512.14476 104.51913,512.34685 104.69433,512.5648 C 108.22308,516.6896 113.30247,519.10245 118.46148,519.10246 z M 115.72881,452.9302 C 112.76504,452.9302 110.33264,449.85238 110.33264,446.04662 C 110.33264,442.24087 112.76503,439.12846 115.72881,439.12846 C 118.6926,439.12846 121.09039,442.24087 121.09039,446.04662 C 121.09039,449.85239 118.69258,452.9302 115.72881,452.9302 z" id="path3187"/>
		<path style="fill:#ffeeaa;fill-opacity:1;fill-rule:evenodd;stroke:none;stroke-width:1px;stroke-linecap:butt;stroke-linejoin:miter;stroke-opacity:1" d="M 115.34831,215.1028 L 187.91988,171.6046 C 187.91988,161.30747 190.44536,146.57255 215.21205,107.16694 C 224.1601,92.929925 224.12771,67.34392 219.1554,47.978101 C 212.18571,67.465193 200.01502,75.211138 192.0016,85.38992 C 196.14817,78.216157 201.77425,70.945551 206.11466,65.343884 C 211.70755,58.125723 215.86927,49.975126 215.86927,42.003384 C 211.27114,54.859607 207.45603,59.699656 202.86312,64.394634 C 194.02648,73.427624 185.87448,85.965567 182.31616,95.664206 C 184.36592,87.006967 189.38263,77.64734 195.59905,70.760222 C 202.11422,63.542083 207.20064,57.414978 210.30015,47.419722 C 200.47093,57.033007 193.0255,56.602952 187.36643,60.541768 C 180.2265,65.511315 174.96564,68.939283 170.83201,72.770409 C 173.16201,69.564475 175.49032,66.706331 177.57722,64.673829 C 190.74778,51.846562 199.66528,54.230375 201.34112,47.754749 C 190.93184,51.559198 175.2125,40.919168 163.42957,50.267483 C 158.90487,53.857281 153.50436,66.683817 152.49887,78.465942 C 152.20237,74.604786 152.47006,70.707389 153.502,66.404821 C 155.27556,59.36816 157.60035,53.671885 161.4233,49.429908 C 173.93597,35.545756 193.50652,52.885118 201.34112,39.825677 C 190.02892,43.910429 176.78735,33.108846 161.59625,44.571949 C 155.85423,48.90488 150.79976,56.957461 149.52405,71.430288 L 149.52405,75.171466 C 146.86337,63.80142 149.65128,57.089349 154.57432,47.754749 C 146.2709,51.34634 142.2007,60.959316 141.60275,72.267862 C 139.54415,63.132019 141.00257,55.417831 151.28819,43.287672 C 125.48895,43.287617 114.21258,62.967776 113.41122,82.039601 C 111.53008,74.039422 113.18188,67.433071 116.00554,61.267678 C 120.18156,52.149412 127.93723,46.577742 134.44245,43.846051 C 128.54002,43.846018 122.80278,45.267341 118.56526,49.820779 C 112.99258,55.808956 109.27719,65.40907 107.11569,74.66892 C 108.56562,60.513144 113.48401,49.773891 122.50861,43.287672 C 109.78903,43.287617 99.054775,59.229043 94.870535,74.892271 C 96.181954,59.165308 105.74889,45.989321 114.27599,42.003384 C 97.008238,42.00335 84.022296,56.237064 79.235478,71.039417 C 80.07727,60.352941 85.753675,53.073812 90.581272,48.368972 C 82.016548,53.274782 75.691473,60.674819 73.424218,70.145999 C 75.568805,56.185581 83.026401,49.127468 92.58754,40.216548 C 75.750039,42.303986 66.086013,52.727206 60.694791,69.866804 C 61.365986,58.850559 67.157222,51.375031 72.075175,46.582136 C 65.35292,50.432611 60.951139,55.51266 58.58475,62.105252 C 60.096209,55.561762 64.193081,49.353144 71.660085,39.546482 C 55.571163,31.936565 42.932979,48.968959 39.352246,64.729661 C 37.974214,70.795123 37.557607,78.902639 38.003204,87.511783 C 31.808865,66.513187 40.575599,52.066615 53.223171,35.302757 C 28.964259,50.016724 26.764592,80.867564 32.710806,107.3903 C 24.1649,85.487782 28.121405,65.296353 34.094439,48.871518 C 20.218202,67.322391 19.202094,92.581327 27.625953,118.94887 C 27.555576,119.06125 27.488808,119.17094 27.418408,119.2839 C 34.835071,140.02072 40.659868,155.02055 43.64151,172.88888 L 115.34831,215.1028 z" id="path2506"/>
		<path style="fill:url(#linearGradient3366);fill-opacity:1;stroke:none;stroke-width:2.50000000000000000;stroke-linecap:round;stroke-linejoin:round;stroke-miterlimit:4;stroke-dashoffset:0;stroke-opacity:1" d="M 116.07472,506.37304 C 119.0196,506.37305 121.94719,505.06534 124.20356,502.39509 C 124.20357,502.39508 145.40618,469.88764 148.72846,458.98359 C 156.81963,432.42759 141.30184,394.63198 138.55876,367.00657 L 131.2255,293.01677 C 130.1729,282.41588 129.5012,276.04323 138.24744,268.56105 L 186.91675,226.91369 C 189.70347,224.52968 189.70345,220.71918 186.91675,218.33516 L 45.232688,218.33516 C 42.445973,220.71923 42.445984,224.52968 45.232688,226.91369 L 93.625265,268.28432 C 102.48899,275.86621 101.87704,283.59408 100.88934,293.50104 L 93.556084,367.00657 C 90.802011,394.63086 75.295222,432.4276 83.386378,458.98359 C 86.70867,469.88763 107.91128,502.39509 107.91128,502.39509 C 110.16765,505.06532 113.12984,506.37303 116.07472,506.37304 z M 113.16909,462.40809 C 105.44183,462.40809 99.159799,454.37795 99.159799,444.45544 C 99.159799,434.53292 105.44183,426.46821 113.16909,426.46821 C 120.89635,426.46822 127.17837,434.53293 127.17837,444.45544 C 127.17837,454.37794 120.89635,462.40809 113.16909,462.40809 z" id="rect2395"/>
		<path style="fill:url(#linearGradient3401);fill-opacity:1;stroke:none;stroke-width:2.50000000000000000;stroke-linecap:round;stroke-linejoin:round;stroke-miterlimit:4;stroke-dashoffset:0;stroke-opacity:1;filter:url(#filter3411)" d="M 109.3078,231.85912 C 92.210882,231.9516 74.975647,232.52499 57.565721,233.58867 C 56.967593,233.58867 57.04087,233.99641 57.638267,234.5918 L 97.665751,267.28014 C 105.00235,274.48244 104.54812,281.806 103.76485,291.217 L 97.968037,367.69733 C 97.34704,375.15853 95.838979,383.42403 94.209911,391.9801 C 96.13107,384.15813 97.883602,376.62713 98.909062,369.80737 L 109.99539,292.46227 C 111.51883,282.33054 112.47872,276.25773 106.25228,269.66691 L 71.110927,239.60747 C 70.530653,239.22731 70.568875,238.75809 71.142153,238.60434 C 91.330891,235.86747 111.6443,233.65924 132.13891,232.20503 C 132.8301,232.15599 133.52229,232.11402 134.2139,232.06667 C 125.94577,231.90585 117.64406,231.81404 109.3078,231.85912 z M 133.46139,348.01515 L 133.52568,367.17847 C 133.78562,393.25551 143.17904,428.22969 135.16576,453.93228 C 132.22219,463.37372 117.13698,489.95924 113.95516,495.60976 C 112.02574,499.03618 113.00554,499.90483 116.98742,500.07645 C 119.45752,500.18292 121.83242,498.84262 123.68539,496.30605 C 123.6854,496.30601 141.07651,465.39738 143.78258,455.03919 C 150.37305,429.81255 137.43504,393.9398 135.084,367.69733 L 133.46139,348.01515 z M 102.87871,439.5079 C 102.6807,440.55493 102.51735,441.63058 102.43982,442.72485 C 101.77203,452.14998 106.06076,459.40416 112.00672,458.94795 C 112.82235,458.88537 113.64254,458.65595 114.42599,458.32532 C 108.06653,458.29834 102.847,450.68111 102.81545,441.27204 C 102.81347,440.68292 102.84112,440.08179 102.87871,439.5079 z" id="path3279" sodipodi:nodetypes="ccccccccccccsccccssssscccsscsc"/>
		<path style="opacity:1;fill:#2b2200;fill-opacity:1;stroke:none;stroke-width:1.41732287;stroke-miterlimit:10;stroke-dasharray:none;stroke-opacity:1;filter:url(#filter3315)" d="M 121.9375,-35.262051 C 27.2507,-35.262051 -49.59375,29.760611 -49.59375,109.86295 C -49.59375,189.96529 27.2507,254.98795 121.9375,254.98795 C 216.6243,254.98795 293.46876,189.96529 293.46875,109.86295 C 293.46875,29.760611 216.6243,-35.262051 121.9375,-35.262051 z M 53.21875,38.644199 C 40.571178,55.408057 31.805661,69.833106 38,90.831699 C 37.554403,82.222555 37.965719,74.115912 39.34375,68.050449 C 42.924483,52.289747 55.567325,35.253032 71.65625,42.862949 C 64.189246,52.669611 60.105208,58.88196 58.59375,65.425449 C 60.960139,58.832857 65.340248,53.775926 72.0625,49.925449 C 67.144547,54.718344 61.358696,62.190452 60.6875,73.206699 C 66.078722,56.067101 75.756249,45.637886 92.59375,43.550449 C 83.032611,52.461369 75.582088,59.527534 73.4375,73.487949 C 75.704755,64.016769 82.02903,56.612508 90.59375,51.706699 C 85.766153,56.411539 80.091789,63.676477 79.25,74.362949 C 84.036818,59.560596 97.013495,45.331665 114.28125,45.331699 C 105.75415,49.317636 96.186417,62.510984 94.875,78.237949 C 99.05924,62.574721 109.78042,46.612896 122.5,46.612949 C 113.4754,53.099168 108.57493,63.832171 107.125,77.987949 C 109.2865,68.728099 112.98982,59.132377 118.5625,53.144199 C 122.80002,48.590761 128.53508,47.175417 134.4375,47.175449 C 127.93228,49.90714 120.17602,55.494684 116,64.612949 C 113.17634,70.778342 111.52511,77.362767 113.40625,85.362949 C 114.20761,66.291124 125.48201,46.612896 151.28125,46.612949 C 140.99563,58.743108 139.53515,66.477108 141.59375,75.612949 C 142.1917,64.304403 146.25907,54.67329 154.5625,51.081699 C 149.63946,60.416299 146.87057,67.117906 149.53125,78.487949 L 149.53125,74.769199 C 150.80696,60.296372 155.85173,52.22713 161.59375,47.894199 C 176.78485,36.431096 190.03154,47.228952 201.34375,43.144199 C 193.50915,56.20364 173.95018,38.885046 161.4375,52.769199 C 157.61455,57.011176 155.27356,62.701286 153.5,69.737949 C 152.46806,74.040517 152.2035,77.939293 152.5,81.800449 C 153.50549,70.018324 158.9128,57.202747 163.4375,53.612949 C 175.22043,44.264634 190.93446,54.886148 201.34375,51.081699 C 199.66791,57.557325 190.73306,55.191933 177.5625,68.019199 C 175.4756,70.051701 173.17374,72.907015 170.84375,76.112949 C 174.97738,72.281823 180.23508,68.832497 187.375,63.862949 C 193.03407,59.924133 200.48327,60.351232 210.3125,50.737949 C 207.21299,60.733205 202.10893,66.863559 195.59375,74.081699 C 189.37733,80.968817 184.36226,90.330709 182.3125,98.987949 C 185.87082,89.28931 194.03837,76.770943 202.875,67.737949 C 207.46791,63.042971 211.27688,58.187922 215.875,45.331699 C 215.875,53.303441 211.7179,61.457285 206.125,68.675449 C 201.78459,74.277116 196.14657,81.532933 192,88.706699 C 200.01342,78.527917 212.18656,70.787542 219.15625,51.300449 C 224.12856,70.666268 224.1668,96.250935 215.21875,110.48795 C 190.45206,149.89356 187.90625,164.62832 187.90625,174.92545 L 43.65625,176.2067 C 40.674608,158.33837 34.822914,143.34977 27.40625,122.61295 C 27.47665,122.49999 27.554622,122.38158 27.625,122.2692 C 19.201141,95.901656 20.217512,70.657573 34.09375,52.206699 C 28.120716,68.631534 24.172842,88.804184 32.71875,110.7067 C 26.772536,84.183963 28.959838,53.358166 53.21875,38.644199 z" id="path2534" transform="matrix(0.9715635,0,0,1.098031,3.4674737,-18.979427)" sodipodi:nodetypes="cssscccsccccccccccccscsccccccscsccscscscscscsccsccccccc" clip-path="url(#clipPath3321)"/>
		<path style="opacity:1;fill:#28170b;fill-opacity:1;stroke:none;stroke-width:1.41732287;stroke-miterlimit:10;stroke-dasharray:none;stroke-opacity:1;filter:url(#filter3350)" d="M 120.3125,123.1875 C 26.523206,123.1875 -49.593752,218.0687 -49.59375,334.96875 C -49.59375,451.8688 26.523208,546.75 120.3125,546.75 C 214.10179,546.75 290.21875,451.8688 290.21875,334.96875 C 290.21875,218.0687 214.1018,123.1875 120.3125,123.1875 z M 45.21875,218.34375 L 186.90625,218.34375 C 189.69295,220.72777 189.69297,224.52223 186.90625,226.90625 L 138.25,268.5625 C 129.50376,276.04468 130.16616,282.43035 131.21875,293.03125 L 138.5625,367 C 141.30558,394.62541 156.80993,432.41276 148.71875,458.96875 C 145.39647,469.8728 124.21876,502.40625 124.21875,502.40625 C 121.96238,505.0765 119.00738,506.375 116.0625,506.375 C 113.11762,506.37499 110.16262,505.07649 107.90625,502.40625 C 107.90625,502.40625 86.697295,469.8728 83.375,458.96875 C 75.283844,432.41276 90.808427,394.6243 93.5625,367 L 100.875,293.5 C 101.8627,283.59304 102.48872,275.86313 93.625,268.28125 L 45.21875,226.90625 C 42.432046,224.52224 42.432034,220.72782 45.21875,218.34375 z M 113.15625,426.46875 C 105.42899,426.46875 99.156251,434.54623 99.15625,444.46875 C 99.15625,454.39126 105.42899,462.40626 113.15625,462.40625 C 120.88351,462.40625 127.1875,454.39125 127.1875,444.46875 C 127.1875,434.54624 120.88351,426.46877 113.15625,426.46875 z" id="path3327" transform="matrix(0.9760763,0,0,0.9788873,1.2524062,8.2915196)" clip-path="url(#clipPath3356)"/>
		<path style="fill:#000000;fill-opacity:1;stroke:none;stroke-width:2.5;stroke-linecap:round;stroke-linejoin:round;stroke-miterlimit:4;stroke-dashoffset:0;stroke-opacity:1" d="M 42.974861,168.50813 C 41.166472,168.41056 39.415649,169.23485 38.355621,170.35101 C 37.295594,171.46717 36.765314,172.79857 36.581833,174.18131 C 34.248344,191.76656 33.809001,209.16525 36.581833,226.07098 C 36.797278,227.38452 37.313982,228.68183 38.355621,229.79287 C 39.397261,230.9039 41.167075,231.76566 42.974861,231.67188 C 94.386071,229.00508 144.69974,229.34113 194.22724,231.67188 C 196.02471,231.75647 197.75756,230.94035 198.80952,229.829 C 199.86149,228.71766 200.38553,227.38863 200.58331,226.03484 C 202.97489,209.6631 202.24355,189.07372 200.58331,174.25358 C 200.42314,172.82381 199.88039,171.45972 198.80952,170.35101 C 197.73865,169.2423 196.03127,168.45165 194.26419,168.50813 C 142.09835,170.176 91.95915,171.15104 42.974861,168.50813 z" id="path3183"/>
		<path style="fill:url(#linearGradient2526);fill-opacity:1;stroke:none;stroke-width:2.50000000000000000;stroke-linecap:round;stroke-linejoin:round;stroke-miterlimit:4;stroke-dashoffset:0;stroke-opacity:1" d="M 45.149393,171.64628 C 91.161767,174.18511 138.15275,173.24371 187.00831,171.64628 C 188.5031,171.59741 189.54506,172.85918 189.70792,174.34588 C 191.23771,188.31091 191.88078,207.91329 189.70792,223.12496 C 189.49644,224.60551 188.50217,225.89645 187.00831,225.82456 C 140.56028,223.58917 93.395449,223.26521 45.149393,225.82456 C 43.65591,225.90378 42.686625,224.60167 42.449792,223.12496 C 39.915772,207.32509 40.293382,190.96498 42.449792,174.34588 C 42.642239,172.86272 43.656076,171.56388 45.149393,171.64628 z" id="rect2391" sodipodi:nodetypes="cssssssss"/>
		<path style="fill:url(#linearGradient3399);fill-opacity:1;stroke:none;stroke-width:2.50000000000000000;stroke-linecap:round;stroke-linejoin:round;stroke-miterlimit:4;stroke-dashoffset:0;stroke-opacity:1;filter:url(#filter3407)" d="M 47.597716,175.02638 C 46.156402,174.95425 45.189153,176.08015 45.003403,177.37856 C 43.319112,189.15227 42.78731,200.77078 43.931087,212.10776 C 44.293721,202.06221 46.114992,191.7468 48.946758,181.25273 C 49.278288,180.02418 50.347339,178.91995 51.748616,178.93515 C 85.683232,179.30328 120.43522,177.85473 156.21294,175.75279 C 119.13022,176.60343 83.042363,176.8003 47.597716,175.02638 z M 187.75978,183.57032 C 187.30332,193.93469 185.8784,206.18338 183.02083,216.22407 C 182.6716,217.45113 181.58727,218.54818 180.18438,218.54165 C 146.10413,218.38299 111.48819,219.23016 76.135154,221.41269 C 112.82262,220.42622 148.90637,220.8948 184.54283,222.45042 C 185.98467,222.51336 186.93302,221.39438 187.13714,220.09824 C 188.90185,208.89255 188.73447,194.98877 187.75978,183.57032 z" id="path3287"/>
		<path style="fill:#4d4d4d;fill-opacity:1;stroke:none;stroke-width:2.50000000000000000;stroke-linecap:round;stroke-linejoin:round;stroke-miterlimit:4;stroke-dashoffset:0;stroke-opacity:1;filter:url(#filter3381)" d="M 18.311814,151.81227 C 16.490378,151.95001 15.27534,154.0814 15.030564,156.46852 C 12.104951,184.99993 11.592645,213.0623 15.030564,240.18727 C 15.351877,242.72246 16.660598,244.97953 18.686814,244.84352 C 84.142512,240.44968 148.13925,241.00584 211.15556,244.84352 C 213.18229,244.96694 214.52489,242.72905 214.81181,240.18727 C 217.75974,214.07212 216.88728,180.44346 214.81181,156.46852 C 214.59085,153.91619 213.18355,151.72838 211.15556,151.81227 C 144.87294,154.55471 81.112064,156.17091 18.686814,151.81227 C 18.56019,151.80343 18.433243,151.80309 18.311814,151.81227 z M 43.936814,171.24977 C 89.94919,173.78859 136.925,172.8472 185.78056,171.24977 C 187.27534,171.20089 188.33645,172.45057 188.49931,173.93727 C 190.0291,187.90229 190.67217,207.50685 188.49931,222.71852 C 188.28783,224.19908 187.27442,225.47791 185.78056,225.40602 C 139.33252,223.17064 92.18287,222.84667 43.936814,225.40602 C 42.443333,225.48525 41.454897,224.19523 41.218064,222.71852 C 38.684045,206.91866 39.061654,190.55637 41.218064,173.93727 C 41.410512,172.4541 42.443497,171.16737 43.936814,171.24977 z" id="path3368" clip-path="url(#clipPath3387)" sodipodi:nodetypes="cssssssssccsssssssc"/>
	</g>
</svg>
